<svg width="54" height="54" viewBox="0 0 54 54" fill="none" xmlns="http://www.w3.org/2000/svg">
<path fill-rule="evenodd" clip-rule="evenodd" d="M38.454 20.614L26.2727 36.614C25.7713 37.2727 24.9953 37.662 24.1687 37.6673H24.15C23.3313 37.6673 22.558 37.2887 22.0513 36.6433L15.566 28.358C14.6593 27.2006 14.862 25.5233 16.022 24.6166C17.1793 23.7073 18.8593 23.91 19.766 25.0727L24.1207 30.6353L34.2113 17.3847C35.102 16.214 36.774 15.9847 37.95 16.878C39.1207 17.7713 39.3473 19.4433 38.454 20.614ZM27.0006 0.333984C12.2727 0.333984 0.333984 12.2727 0.333984 27.0006C0.333984 41.726 12.2727 53.6673 27.0006 53.6673C41.7286 53.6673 53.6673 41.726 53.6673 27.0006C53.6673 12.2727 41.7286 0.333984 27.0006 0.333984Z" fill="#15CC96"/>
</svg>
