<svg width="14" height="14" viewBox="0 0 14 14" fill="none" xmlns="http://www.w3.org/2000/svg">
<path fill-rule="evenodd" clip-rule="evenodd" d="M6.99967 4.99969C6.63167 4.99969 6.33301 4.70103 6.33301 4.33303C6.33301 3.96503 6.63167 3.66636 6.99967 3.66636C7.36767 3.66636 7.66634 3.96503 7.66634 4.33303C7.66634 4.70103 7.36767 4.99969 6.99967 4.99969ZM7.66634 9.66636C7.66634 10.0344 7.36767 10.333 6.99967 10.333C6.63167 10.333 6.33301 10.0344 6.33301 9.66636V6.33303C6.33301 5.96503 6.63167 5.66636 6.99967 5.66636C7.36767 5.66636 7.66634 5.96503 7.66634 6.33303V9.66636ZM6.99967 0.333008C3.31767 0.333008 0.333008 3.31767 0.333008 6.99967C0.333008 10.6817 3.31767 13.6663 6.99967 13.6663C10.681 13.6663 13.6663 10.6817 13.6663 6.99967C13.6663 3.31767 10.681 0.333008 6.99967 0.333008Z" fill="#007EFF"/>
</svg>
