<svg width="13" height="12" viewBox="0 0 13 12" fill="none" xmlns="http://www.w3.org/2000/svg">
<path fill-rule="evenodd" clip-rule="evenodd" d="M6.25 7C5.974 7 5.75 7.224 5.75 7.5C5.75 7.776 5.974 8 6.25 8C6.526 8 6.75 7.776 6.75 7.5C6.75 7.224 6.526 7 6.25 7ZM6.25 9C5.423 9 4.75 8.327 4.75 7.5C4.75 6.673 5.423 6 6.25 6C7.077 6 7.75 6.673 7.75 7.5C7.75 8.327 7.077 9 6.25 9ZM5.25 3.0555C5.25 2.4735 5.6985 2 6.25 2C6.8015 2 7.25 2.4735 7.25 3.0555V4H5.25V3.0555ZM8.75 4H8.25V3.0555C8.25 1.9225 7.353 1 6.25 1C5.147 1 4.25 1.9225 4.25 3.0555V4H3.75C2.923 4 2.25 4.673 2.25 5.5V9.5C2.25 10.327 2.923 11 3.75 11H8.75C9.577 11 10.25 10.327 10.25 9.5V5.5C10.25 4.673 9.577 4 8.75 4Z" fill="white"/>
</svg>
