<svg width="273" height="80" viewBox="0 0 273 80" fill="none" xmlns="http://www.w3.org/2000/svg">
<path d="M0 8C0 3.58172 3.58172 0 8 0H265C269.418 0 273 3.58172 273 8V72C273 76.4183 269.418 80 265 80H8C3.58172 80 0 76.4183 0 72V8Z" fill="white"/>
<path fill-rule="evenodd" clip-rule="evenodd" d="M33.25 34C32.5935 34 32 34.5623 32 35.3333V44.6667C32 45.4377 32.5935 46 33.25 46H46.75C47.4065 46 48 45.4377 48 44.6667V35.3333C48 34.5623 47.4065 34 46.75 34H33.25ZM30 35.3333C30 33.5269 31.421 32 33.25 32H46.75C48.579 32 50 33.5269 50 35.3333V44.6667C50 46.4731 48.579 48 46.75 48H33.25C31.421 48 30 46.4731 30 44.6667V35.3333Z" fill="#828EA5"/>
<path fill-rule="evenodd" clip-rule="evenodd" d="M33 43C33 42.4477 33.4477 42 34 42H40C40.5523 42 41 42.4477 41 43C41 43.5523 40.5523 44 40 44H34C33.4477 44 33 43.5523 33 43Z" fill="#828EA5"/>
<path fill-rule="evenodd" clip-rule="evenodd" d="M30 37C30 36.4477 30.4477 36 31 36L49 36C49.5523 36 50 36.4477 50 37C50 37.5523 49.5523 38 49 38L31 38C30.4477 38 30 37.5523 30 37Z" fill="#828EA5"/>
<path d="M86.8643 23.2031V36H84.2363V23.2031H86.8643ZM90.8018 23.2031V25.2686H80.3604V23.2031H90.8018ZM96.1934 33.8555V29.6191C96.1934 29.3145 96.1436 29.0537 96.0439 28.8369C95.9443 28.6143 95.7891 28.4414 95.5781 28.3184C95.373 28.1953 95.1064 28.1338 94.7783 28.1338C94.4971 28.1338 94.2539 28.1836 94.0488 28.2832C93.8438 28.377 93.6855 28.5146 93.5742 28.6963C93.4629 28.8721 93.4072 29.0801 93.4072 29.3203H90.876C90.876 28.916 90.9697 28.5322 91.1572 28.1689C91.3447 27.8057 91.6172 27.4863 91.9746 27.2109C92.332 26.9297 92.7568 26.71 93.249 26.5518C93.7471 26.3936 94.3037 26.3145 94.9189 26.3145C95.6572 26.3145 96.3135 26.4375 96.8877 26.6836C97.4619 26.9297 97.9131 27.2988 98.2412 27.791C98.5752 28.2832 98.7422 28.8984 98.7422 29.6367V33.7061C98.7422 34.2275 98.7744 34.6553 98.8389 34.9893C98.9033 35.3174 98.9971 35.6045 99.1201 35.8506V36H96.5625C96.4395 35.7422 96.3457 35.4199 96.2812 35.0332C96.2227 34.6406 96.1934 34.248 96.1934 33.8555ZM96.5273 30.208L96.5449 31.6406H95.1299C94.7959 31.6406 94.5059 31.6787 94.2598 31.7549C94.0137 31.8311 93.8115 31.9395 93.6533 32.0801C93.4951 32.2148 93.3779 32.373 93.3018 32.5547C93.2314 32.7363 93.1963 32.9355 93.1963 33.1523C93.1963 33.3691 93.2461 33.5654 93.3457 33.7412C93.4453 33.9111 93.5889 34.0459 93.7764 34.1455C93.9639 34.2393 94.1836 34.2861 94.4355 34.2861C94.8164 34.2861 95.1475 34.21 95.4287 34.0576C95.71 33.9053 95.9268 33.7178 96.0791 33.4951C96.2373 33.2725 96.3193 33.0615 96.3252 32.8623L96.9932 33.9346C96.8994 34.1748 96.7705 34.4238 96.6064 34.6816C96.4482 34.9395 96.2461 35.1826 96 35.4111C95.7539 35.6338 95.458 35.8184 95.1123 35.9648C94.7666 36.1055 94.3564 36.1758 93.8818 36.1758C93.2783 36.1758 92.7305 36.0557 92.2383 35.8154C91.752 35.5693 91.3652 35.2324 91.0781 34.8047C90.7969 34.3711 90.6562 33.8789 90.6562 33.3281C90.6562 32.8301 90.75 32.3877 90.9375 32.001C91.125 31.6143 91.4004 31.2891 91.7637 31.0254C92.1328 30.7559 92.5928 30.5537 93.1436 30.4189C93.6943 30.2783 94.333 30.208 95.0596 30.208H96.5273ZM103.475 28.5645V36H100.943V26.4902H103.325L103.475 28.5645ZM106.34 26.4287L106.296 28.7754C106.173 28.7578 106.023 28.7432 105.848 28.7314C105.678 28.7139 105.522 28.7051 105.382 28.7051C105.024 28.7051 104.714 28.752 104.45 28.8457C104.192 28.9336 103.976 29.0654 103.8 29.2412C103.63 29.417 103.501 29.6309 103.413 29.8828C103.331 30.1348 103.284 30.4219 103.272 30.7441L102.763 30.5859C102.763 29.9707 102.824 29.4053 102.947 28.8896C103.07 28.3682 103.249 27.9141 103.483 27.5273C103.724 27.1406 104.017 26.8418 104.362 26.6309C104.708 26.4199 105.104 26.3145 105.549 26.3145C105.689 26.3145 105.833 26.3262 105.979 26.3496C106.126 26.3672 106.246 26.3936 106.34 26.4287ZM107.926 26.4902H110.466V36.5713C110.466 37.2744 110.337 37.8691 110.079 38.3555C109.821 38.8418 109.449 39.2109 108.963 39.4629C108.477 39.7148 107.888 39.8408 107.196 39.8408C106.979 39.8408 106.769 39.8291 106.563 39.8057C106.353 39.7822 106.136 39.7441 105.913 39.6914L105.922 37.749C106.062 37.7725 106.2 37.79 106.335 37.8018C106.464 37.8193 106.596 37.8281 106.73 37.8281C106.994 37.8281 107.214 37.7842 107.39 37.6963C107.565 37.6084 107.697 37.4707 107.785 37.2832C107.879 37.1016 107.926 36.8643 107.926 36.5713V26.4902ZM107.724 24.0117C107.724 23.6426 107.853 23.3379 108.11 23.0977C108.374 22.8574 108.72 22.7373 109.147 22.7373C109.581 22.7373 109.927 22.8574 110.185 23.0977C110.442 23.3379 110.571 23.6426 110.571 24.0117C110.571 24.3809 110.442 24.6855 110.185 24.9258C109.927 25.166 109.581 25.2861 109.147 25.2861C108.72 25.2861 108.374 25.166 108.11 24.9258C107.853 24.6855 107.724 24.3809 107.724 24.0117ZM117.105 36.1758C116.367 36.1758 115.705 36.0586 115.119 35.8242C114.533 35.584 114.035 35.2529 113.625 34.8311C113.221 34.4092 112.91 33.9199 112.693 33.3633C112.477 32.8008 112.368 32.2031 112.368 31.5703V31.2188C112.368 30.498 112.471 29.8389 112.676 29.2412C112.881 28.6436 113.174 28.125 113.555 27.6855C113.941 27.2461 114.41 26.9092 114.961 26.6748C115.512 26.4346 116.133 26.3145 116.824 26.3145C117.498 26.3145 118.096 26.4258 118.617 26.6484C119.139 26.8711 119.575 27.1875 119.927 27.5977C120.284 28.0078 120.554 28.5 120.735 29.0742C120.917 29.6426 121.008 30.2754 121.008 30.9727V32.0273H113.449V30.3398H118.521V30.1465C118.521 29.7949 118.456 29.4814 118.327 29.2061C118.204 28.9248 118.017 28.7021 117.765 28.5381C117.513 28.374 117.19 28.292 116.798 28.292C116.464 28.292 116.177 28.3652 115.937 28.5117C115.696 28.6582 115.5 28.8633 115.348 29.127C115.201 29.3906 115.09 29.7012 115.014 30.0586C114.943 30.4102 114.908 30.7969 114.908 31.2188V31.5703C114.908 31.9512 114.961 32.3027 115.066 32.625C115.178 32.9473 115.333 33.2256 115.532 33.46C115.737 33.6943 115.983 33.876 116.271 34.0049C116.563 34.1338 116.895 34.1982 117.264 34.1982C117.721 34.1982 118.146 34.1104 118.538 33.9346C118.937 33.7529 119.279 33.4805 119.566 33.1172L120.797 34.4531C120.598 34.7402 120.325 35.0156 119.979 35.2793C119.64 35.543 119.229 35.7598 118.749 35.9297C118.269 36.0938 117.721 36.1758 117.105 36.1758ZM127.357 26.4902V28.2832H121.82V26.4902H127.357ZM123.191 24.1436H125.723V33.1348C125.723 33.4102 125.758 33.6211 125.828 33.7676C125.904 33.9141 126.016 34.0166 126.162 34.0752C126.309 34.1279 126.493 34.1543 126.716 34.1543C126.874 34.1543 127.015 34.1484 127.138 34.1367C127.267 34.1191 127.375 34.1016 127.463 34.084L127.472 35.9473C127.255 36.0176 127.021 36.0732 126.769 36.1143C126.517 36.1553 126.238 36.1758 125.934 36.1758C125.377 36.1758 124.891 36.085 124.475 35.9033C124.064 35.7158 123.748 35.417 123.525 35.0068C123.303 34.5967 123.191 34.0576 123.191 33.3896V24.1436ZM134.182 33.8555V29.6191C134.182 29.3145 134.132 29.0537 134.032 28.8369C133.933 28.6143 133.777 28.4414 133.566 28.3184C133.361 28.1953 133.095 28.1338 132.767 28.1338C132.485 28.1338 132.242 28.1836 132.037 28.2832C131.832 28.377 131.674 28.5146 131.562 28.6963C131.451 28.8721 131.396 29.0801 131.396 29.3203H128.864C128.864 28.916 128.958 28.5322 129.146 28.1689C129.333 27.8057 129.605 27.4863 129.963 27.2109C130.32 26.9297 130.745 26.71 131.237 26.5518C131.735 26.3936 132.292 26.3145 132.907 26.3145C133.646 26.3145 134.302 26.4375 134.876 26.6836C135.45 26.9297 135.901 27.2988 136.229 27.791C136.563 28.2832 136.73 28.8984 136.73 29.6367V33.7061C136.73 34.2275 136.763 34.6553 136.827 34.9893C136.892 35.3174 136.985 35.6045 137.108 35.8506V36H134.551C134.428 35.7422 134.334 35.4199 134.27 35.0332C134.211 34.6406 134.182 34.248 134.182 33.8555ZM134.516 30.208L134.533 31.6406H133.118C132.784 31.6406 132.494 31.6787 132.248 31.7549C132.002 31.8311 131.8 31.9395 131.642 32.0801C131.483 32.2148 131.366 32.373 131.29 32.5547C131.22 32.7363 131.185 32.9355 131.185 33.1523C131.185 33.3691 131.234 33.5654 131.334 33.7412C131.434 33.9111 131.577 34.0459 131.765 34.1455C131.952 34.2393 132.172 34.2861 132.424 34.2861C132.805 34.2861 133.136 34.21 133.417 34.0576C133.698 33.9053 133.915 33.7178 134.067 33.4951C134.226 33.2725 134.308 33.0615 134.313 32.8623L134.981 33.9346C134.888 34.1748 134.759 34.4238 134.595 34.6816C134.437 34.9395 134.234 35.1826 133.988 35.4111C133.742 35.6338 133.446 35.8184 133.101 35.9648C132.755 36.1055 132.345 36.1758 131.87 36.1758C131.267 36.1758 130.719 36.0557 130.227 35.8154C129.74 35.5693 129.354 35.2324 129.066 34.8047C128.785 34.3711 128.645 33.8789 128.645 33.3281C128.645 32.8301 128.738 32.3877 128.926 32.001C129.113 31.6143 129.389 31.2891 129.752 31.0254C130.121 30.7559 130.581 30.5537 131.132 30.4189C131.683 30.2783 132.321 30.208 133.048 30.208H134.516ZM144.073 33.3721C144.073 33.1904 144.021 33.0264 143.915 32.8799C143.81 32.7334 143.613 32.5986 143.326 32.4756C143.045 32.3467 142.638 32.2295 142.104 32.124C141.624 32.0186 141.176 31.8867 140.76 31.7285C140.35 31.5645 139.992 31.3682 139.688 31.1396C139.389 30.9111 139.154 30.6416 138.984 30.3311C138.814 30.0146 138.729 29.6543 138.729 29.25C138.729 28.8516 138.814 28.4766 138.984 28.125C139.16 27.7734 139.409 27.4629 139.731 27.1934C140.06 26.918 140.458 26.7041 140.927 26.5518C141.401 26.3936 141.935 26.3145 142.526 26.3145C143.353 26.3145 144.062 26.4463 144.653 26.71C145.251 26.9736 145.708 27.3369 146.024 27.7998C146.347 28.2568 146.508 28.7783 146.508 29.3643H143.977C143.977 29.1182 143.924 28.8984 143.818 28.7051C143.719 28.5059 143.561 28.3506 143.344 28.2393C143.133 28.1221 142.857 28.0635 142.518 28.0635C142.236 28.0635 141.993 28.1133 141.788 28.2129C141.583 28.3066 141.425 28.4355 141.313 28.5996C141.208 28.7578 141.155 28.9336 141.155 29.127C141.155 29.2734 141.185 29.4053 141.243 29.5225C141.308 29.6338 141.41 29.7363 141.551 29.8301C141.691 29.9238 141.873 30.0117 142.096 30.0938C142.324 30.1699 142.605 30.2402 142.939 30.3047C143.625 30.4453 144.237 30.6299 144.776 30.8584C145.315 31.0811 145.743 31.3857 146.06 31.7725C146.376 32.1533 146.534 32.6543 146.534 33.2754C146.534 33.6973 146.44 34.084 146.253 34.4355C146.065 34.7871 145.796 35.0947 145.444 35.3584C145.093 35.6162 144.671 35.8184 144.179 35.9648C143.692 36.1055 143.145 36.1758 142.535 36.1758C141.65 36.1758 140.9 36.0176 140.285 35.7012C139.676 35.3848 139.213 34.9834 138.896 34.4971C138.586 34.0049 138.431 33.501 138.431 32.9854H140.83C140.842 33.3311 140.93 33.6094 141.094 33.8203C141.264 34.0312 141.478 34.1836 141.735 34.2773C141.999 34.3711 142.283 34.418 142.588 34.418C142.916 34.418 143.188 34.374 143.405 34.2861C143.622 34.1924 143.786 34.0693 143.897 33.917C144.015 33.7588 144.073 33.5771 144.073 33.3721Z" fill="#2D3338"/>
<path d="M83.2988 58H81.5176L81.5293 57.0801H83.2988C83.9082 57.0801 84.416 56.9531 84.8223 56.6992C85.2285 56.4414 85.5332 56.082 85.7363 55.6211C85.9434 55.1562 86.0469 54.6133 86.0469 53.9922V53.4707C86.0469 52.9824 85.9883 52.5488 85.8711 52.1699C85.7539 51.7871 85.582 51.4648 85.3555 51.2031C85.1289 50.9375 84.8516 50.7363 84.5234 50.5996C84.1992 50.4629 83.8262 50.3945 83.4043 50.3945H81.4824V49.4688H83.4043C83.9629 49.4688 84.4727 49.5625 84.9336 49.75C85.3945 49.9336 85.791 50.2012 86.123 50.5527C86.459 50.9004 86.7168 51.3223 86.8965 51.8184C87.0762 52.3105 87.166 52.8652 87.166 53.4824V53.9922C87.166 54.6094 87.0762 55.166 86.8965 55.6621C86.7168 56.1543 86.457 56.5742 86.1172 56.9219C85.7812 57.2695 85.375 57.5371 84.8984 57.7246C84.4258 57.9082 83.8926 58 83.2988 58ZM82.1211 49.4688V58H80.9902V49.4688H82.1211ZM91.582 58.1172C91.1406 58.1172 90.7402 58.043 90.3809 57.8945C90.0254 57.7422 89.7188 57.5293 89.4609 57.2559C89.207 56.9824 89.0117 56.6582 88.875 56.2832C88.7383 55.9082 88.6699 55.498 88.6699 55.0527V54.8066C88.6699 54.291 88.7461 53.832 88.8984 53.4297C89.0508 53.0234 89.2578 52.6797 89.5195 52.3984C89.7812 52.1172 90.0781 51.9043 90.4102 51.7598C90.7422 51.6152 91.0859 51.543 91.4414 51.543C91.8945 51.543 92.2852 51.6211 92.6133 51.7773C92.9453 51.9336 93.2168 52.1523 93.4277 52.4336C93.6387 52.7109 93.7949 53.0391 93.8965 53.418C93.998 53.793 94.0488 54.2031 94.0488 54.6484V55.1348H89.3145V54.25H92.9648V54.168C92.9492 53.8867 92.8906 53.6133 92.7891 53.3477C92.6914 53.082 92.5352 52.8633 92.3203 52.6914C92.1055 52.5195 91.8125 52.4336 91.4414 52.4336C91.1953 52.4336 90.9688 52.4863 90.7617 52.5918C90.5547 52.6934 90.377 52.8457 90.2285 53.0488C90.0801 53.252 89.9648 53.5 89.8828 53.793C89.8008 54.0859 89.7598 54.4238 89.7598 54.8066V55.0527C89.7598 55.3535 89.8008 55.6367 89.8828 55.9023C89.9688 56.1641 90.0918 56.3945 90.252 56.5938C90.416 56.793 90.6133 56.9492 90.8438 57.0625C91.0781 57.1758 91.3438 57.2324 91.6406 57.2324C92.0234 57.2324 92.3477 57.1543 92.6133 56.998C92.8789 56.8418 93.1113 56.6328 93.3105 56.3711L93.9668 56.8926C93.8301 57.0996 93.6562 57.2969 93.4453 57.4844C93.2344 57.6719 92.9746 57.8242 92.666 57.9414C92.3613 58.0586 92 58.1172 91.582 58.1172ZM90.8379 50.7227L91.9746 49H93.2812L91.7109 50.7227H90.8379ZM95.5586 49H96.6484V56.7695L96.5547 58H95.5586V49ZM100.932 54.7773V54.9004C100.932 55.3613 100.877 55.7891 100.768 56.1836C100.658 56.5742 100.498 56.9141 100.287 57.2031C100.076 57.4922 99.8184 57.7168 99.5137 57.877C99.209 58.0371 98.8594 58.1172 98.4648 58.1172C98.0625 58.1172 97.709 58.0488 97.4043 57.9121C97.1035 57.7715 96.8496 57.5703 96.6426 57.3086C96.4355 57.0469 96.2695 56.7305 96.1445 56.3594C96.0234 55.9883 95.9395 55.5703 95.8926 55.1055V54.5664C95.9395 54.0977 96.0234 53.6777 96.1445 53.3066C96.2695 52.9355 96.4355 52.6191 96.6426 52.3574C96.8496 52.0918 97.1035 51.8906 97.4043 51.7539C97.7051 51.6133 98.0547 51.543 98.4531 51.543C98.8516 51.543 99.2051 51.6211 99.5137 51.7773C99.8223 51.9297 100.08 52.1484 100.287 52.4336C100.498 52.7188 100.658 53.0605 100.768 53.459C100.877 53.8535 100.932 54.293 100.932 54.7773ZM99.8418 54.9004V54.7773C99.8418 54.4609 99.8125 54.1641 99.7539 53.8867C99.6953 53.6055 99.6016 53.3594 99.4727 53.1484C99.3438 52.9336 99.1738 52.7656 98.9629 52.6445C98.752 52.5195 98.4922 52.457 98.1836 52.457C97.9102 52.457 97.6719 52.5039 97.4688 52.5977C97.2695 52.6914 97.0996 52.8184 96.959 52.9785C96.8184 53.1348 96.7031 53.3145 96.6133 53.5176C96.5273 53.7168 96.4629 53.9238 96.4199 54.1387V55.5508C96.4824 55.8242 96.584 56.0879 96.7246 56.3418C96.8691 56.5918 97.0605 56.7969 97.2988 56.957C97.541 57.1172 97.8398 57.1973 98.1953 57.1973C98.4883 57.1973 98.7383 57.1387 98.9453 57.0215C99.1562 56.9004 99.3262 56.7344 99.4551 56.5234C99.5879 56.3125 99.6855 56.0684 99.748 55.791C99.8105 55.5137 99.8418 55.2168 99.8418 54.9004ZM103.73 51.6602V58H102.641V51.6602H103.73ZM102.559 49.9785C102.559 49.8027 102.611 49.6543 102.717 49.5332C102.826 49.4121 102.986 49.3516 103.197 49.3516C103.404 49.3516 103.562 49.4121 103.672 49.5332C103.785 49.6543 103.842 49.8027 103.842 49.9785C103.842 50.1465 103.785 50.291 103.672 50.4121C103.562 50.5293 103.404 50.5879 103.197 50.5879C102.986 50.5879 102.826 50.5293 102.717 50.4121C102.611 50.291 102.559 50.1465 102.559 49.9785ZM108.375 51.6602V52.4922H104.947V51.6602H108.375ZM106.107 50.1191H107.191V56.4297C107.191 56.6445 107.225 56.8066 107.291 56.916C107.357 57.0254 107.443 57.0977 107.549 57.1328C107.654 57.168 107.768 57.1855 107.889 57.1855C107.979 57.1855 108.072 57.1777 108.17 57.1621C108.271 57.1426 108.348 57.127 108.398 57.1152L108.404 58C108.318 58.0273 108.205 58.0527 108.064 58.0762C107.928 58.1035 107.762 58.1172 107.566 58.1172C107.301 58.1172 107.057 58.0645 106.834 57.959C106.611 57.8535 106.434 57.6777 106.301 57.4316C106.172 57.1816 106.107 56.8457 106.107 56.4238V50.1191ZM109.492 54.9004V54.7656C109.492 54.3086 109.559 53.8848 109.691 53.4941C109.824 53.0996 110.016 52.7578 110.266 52.4688C110.516 52.1758 110.818 51.9492 111.174 51.7891C111.529 51.625 111.928 51.543 112.369 51.543C112.814 51.543 113.215 51.625 113.57 51.7891C113.93 51.9492 114.234 52.1758 114.484 52.4688C114.738 52.7578 114.932 53.0996 115.064 53.4941C115.197 53.8848 115.264 54.3086 115.264 54.7656V54.9004C115.264 55.3574 115.197 55.7812 115.064 56.1719C114.932 56.5625 114.738 56.9043 114.484 57.1973C114.234 57.4863 113.932 57.7129 113.576 57.877C113.225 58.0371 112.826 58.1172 112.381 58.1172C111.936 58.1172 111.535 58.0371 111.18 57.877C110.824 57.7129 110.52 57.4863 110.266 57.1973C110.016 56.9043 109.824 56.5625 109.691 56.1719C109.559 55.7812 109.492 55.3574 109.492 54.9004ZM110.576 54.7656V54.9004C110.576 55.2168 110.613 55.5156 110.688 55.7969C110.762 56.0742 110.873 56.3203 111.021 56.5352C111.174 56.75 111.363 56.9199 111.59 57.0449C111.816 57.166 112.08 57.2266 112.381 57.2266C112.678 57.2266 112.938 57.166 113.16 57.0449C113.387 56.9199 113.574 56.75 113.723 56.5352C113.871 56.3203 113.982 56.0742 114.057 55.7969C114.135 55.5156 114.174 55.2168 114.174 54.9004V54.7656C114.174 54.4531 114.135 54.1582 114.057 53.8809C113.982 53.5996 113.869 53.3516 113.717 53.1367C113.568 52.918 113.381 52.7461 113.154 52.6211C112.932 52.4961 112.67 52.4336 112.369 52.4336C112.072 52.4336 111.811 52.4961 111.584 52.6211C111.361 52.7461 111.174 52.918 111.021 53.1367C110.873 53.3516 110.762 53.5996 110.688 53.8809C110.613 54.1582 110.576 54.4531 110.576 54.7656ZM117.857 56.7109V57.584C117.857 57.9395 117.768 58.3145 117.588 58.709C117.408 59.1074 117.156 59.4395 116.832 59.7051L116.217 59.2773C116.342 59.1055 116.447 58.9297 116.533 58.75C116.619 58.5742 116.684 58.3906 116.727 58.1992C116.773 58.0117 116.797 57.8125 116.797 57.6016V56.7109H117.857ZM125.254 57.2266C125.512 57.2266 125.75 57.1738 125.969 57.0684C126.188 56.9629 126.367 56.8184 126.508 56.6348C126.648 56.4473 126.729 56.2344 126.748 55.9961H127.779C127.76 56.3711 127.633 56.7207 127.398 57.0449C127.168 57.3652 126.865 57.625 126.49 57.8242C126.115 58.0195 125.703 58.1172 125.254 58.1172C124.777 58.1172 124.361 58.0332 124.006 57.8652C123.654 57.6973 123.361 57.4668 123.127 57.1738C122.896 56.8809 122.723 56.5449 122.605 56.166C122.492 55.7832 122.436 55.3789 122.436 54.9531V54.707C122.436 54.2812 122.492 53.8789 122.605 53.5C122.723 53.1172 122.896 52.7793 123.127 52.4863C123.361 52.1934 123.654 51.9629 124.006 51.7949C124.361 51.627 124.777 51.543 125.254 51.543C125.75 51.543 126.184 51.6445 126.555 51.8477C126.926 52.0469 127.217 52.3203 127.428 52.668C127.643 53.0117 127.76 53.4023 127.779 53.8398H126.748C126.729 53.5781 126.654 53.3418 126.525 53.1309C126.4 52.9199 126.229 52.752 126.01 52.627C125.795 52.498 125.543 52.4336 125.254 52.4336C124.922 52.4336 124.643 52.5 124.416 52.6328C124.193 52.7617 124.016 52.9375 123.883 53.1602C123.754 53.3789 123.66 53.623 123.602 53.8926C123.547 54.1582 123.52 54.4297 123.52 54.707V54.9531C123.52 55.2305 123.547 55.5039 123.602 55.7734C123.656 56.043 123.748 56.2871 123.877 56.5059C124.01 56.7246 124.188 56.9004 124.41 57.0332C124.637 57.1621 124.918 57.2266 125.254 57.2266ZM130.332 52.6562V58H129.248V51.6602H130.303L130.332 52.6562ZM132.312 51.625L132.307 52.6328C132.217 52.6133 132.131 52.6016 132.049 52.5977C131.971 52.5898 131.881 52.5859 131.779 52.5859C131.529 52.5859 131.309 52.625 131.117 52.7031C130.926 52.7812 130.764 52.8906 130.631 53.0312C130.498 53.1719 130.393 53.3398 130.314 53.5352C130.24 53.7266 130.191 53.9375 130.168 54.168L129.863 54.3438C129.863 53.9609 129.9 53.6016 129.975 53.2656C130.053 52.9297 130.172 52.6328 130.332 52.375C130.492 52.1133 130.695 51.9102 130.941 51.7656C131.191 51.6172 131.488 51.543 131.832 51.543C131.91 51.543 132 51.5527 132.102 51.5723C132.203 51.5879 132.273 51.6055 132.312 51.625ZM136.078 58.1172C135.637 58.1172 135.236 58.043 134.877 57.8945C134.521 57.7422 134.215 57.5293 133.957 57.2559C133.703 56.9824 133.508 56.6582 133.371 56.2832C133.234 55.9082 133.166 55.498 133.166 55.0527V54.8066C133.166 54.291 133.242 53.832 133.395 53.4297C133.547 53.0234 133.754 52.6797 134.016 52.3984C134.277 52.1172 134.574 51.9043 134.906 51.7598C135.238 51.6152 135.582 51.543 135.938 51.543C136.391 51.543 136.781 51.6211 137.109 51.7773C137.441 51.9336 137.713 52.1523 137.924 52.4336C138.135 52.7109 138.291 53.0391 138.393 53.418C138.494 53.793 138.545 54.2031 138.545 54.6484V55.1348H133.811V54.25H137.461V54.168C137.445 53.8867 137.387 53.6133 137.285 53.3477C137.188 53.082 137.031 52.8633 136.816 52.6914C136.602 52.5195 136.309 52.4336 135.938 52.4336C135.691 52.4336 135.465 52.4863 135.258 52.5918C135.051 52.6934 134.873 52.8457 134.725 53.0488C134.576 53.252 134.461 53.5 134.379 53.793C134.297 54.0859 134.256 54.4238 134.256 54.8066V55.0527C134.256 55.3535 134.297 55.6367 134.379 55.9023C134.465 56.1641 134.588 56.3945 134.748 56.5938C134.912 56.793 135.109 56.9492 135.34 57.0625C135.574 57.1758 135.84 57.2324 136.137 57.2324C136.52 57.2324 136.844 57.1543 137.109 56.998C137.375 56.8418 137.607 56.6328 137.807 56.3711L138.463 56.8926C138.326 57.0996 138.152 57.2969 137.941 57.4844C137.73 57.6719 137.471 57.8242 137.162 57.9414C136.857 58.0586 136.496 58.1172 136.078 58.1172ZM135.334 50.7227L136.471 49H137.777L136.207 50.7227H135.334ZM144.057 56.7695V49H145.146V58H144.15L144.057 56.7695ZM139.791 54.9004V54.7773C139.791 54.293 139.85 53.8535 139.967 53.459C140.088 53.0605 140.258 52.7188 140.477 52.4336C140.699 52.1484 140.963 51.9297 141.268 51.7773C141.576 51.6211 141.92 51.543 142.299 51.543C142.697 51.543 143.045 51.6133 143.342 51.7539C143.643 51.8906 143.896 52.0918 144.104 52.3574C144.314 52.6191 144.48 52.9355 144.602 53.3066C144.723 53.6777 144.807 54.0977 144.854 54.5664V55.1055C144.811 55.5703 144.727 55.9883 144.602 56.3594C144.48 56.7305 144.314 57.0469 144.104 57.3086C143.896 57.5703 143.643 57.7715 143.342 57.9121C143.041 58.0488 142.689 58.1172 142.287 58.1172C141.916 58.1172 141.576 58.0371 141.268 57.877C140.963 57.7168 140.699 57.4922 140.477 57.2031C140.258 56.9141 140.088 56.5742 139.967 56.1836C139.85 55.7891 139.791 55.3613 139.791 54.9004ZM140.881 54.7773V54.9004C140.881 55.2168 140.912 55.5137 140.975 55.791C141.041 56.0684 141.143 56.3125 141.279 56.5234C141.416 56.7344 141.59 56.9004 141.801 57.0215C142.012 57.1387 142.264 57.1973 142.557 57.1973C142.916 57.1973 143.211 57.1211 143.441 56.9688C143.676 56.8164 143.863 56.6152 144.004 56.3652C144.145 56.1152 144.254 55.8438 144.332 55.5508V54.1387C144.285 53.9238 144.217 53.7168 144.127 53.5176C144.041 53.3145 143.928 53.1348 143.787 52.9785C143.65 52.8184 143.48 52.6914 143.277 52.5977C143.078 52.5039 142.842 52.457 142.568 52.457C142.271 52.457 142.016 52.5195 141.801 52.6445C141.59 52.7656 141.416 52.9336 141.279 53.1484C141.143 53.3594 141.041 53.6055 140.975 53.8867C140.912 54.1641 140.881 54.4609 140.881 54.7773ZM148.262 51.6602V58H147.172V51.6602H148.262ZM147.09 49.9785C147.09 49.8027 147.143 49.6543 147.248 49.5332C147.357 49.4121 147.518 49.3516 147.729 49.3516C147.936 49.3516 148.094 49.4121 148.203 49.5332C148.316 49.6543 148.373 49.8027 148.373 49.9785C148.373 50.1465 148.316 50.291 148.203 50.4121C148.094 50.5293 147.936 50.5879 147.729 50.5879C147.518 50.5879 147.357 50.5293 147.248 50.4121C147.143 50.291 147.09 50.1465 147.09 49.9785ZM152.906 51.6602V52.4922H149.479V51.6602H152.906ZM150.639 50.1191H151.723V56.4297C151.723 56.6445 151.756 56.8066 151.822 56.916C151.889 57.0254 151.975 57.0977 152.08 57.1328C152.186 57.168 152.299 57.1855 152.42 57.1855C152.51 57.1855 152.604 57.1777 152.701 57.1621C152.803 57.1426 152.879 57.127 152.93 57.1152L152.936 58C152.85 58.0273 152.736 58.0527 152.596 58.0762C152.459 58.1035 152.293 58.1172 152.098 58.1172C151.832 58.1172 151.588 58.0645 151.365 57.959C151.143 57.8535 150.965 57.6777 150.832 57.4316C150.703 57.1816 150.639 56.8457 150.639 56.4238V50.1191ZM154.023 54.9004V54.7656C154.023 54.3086 154.09 53.8848 154.223 53.4941C154.355 53.0996 154.547 52.7578 154.797 52.4688C155.047 52.1758 155.35 51.9492 155.705 51.7891C156.061 51.625 156.459 51.543 156.9 51.543C157.346 51.543 157.746 51.625 158.102 51.7891C158.461 51.9492 158.766 52.1758 159.016 52.4688C159.27 52.7578 159.463 53.0996 159.596 53.4941C159.729 53.8848 159.795 54.3086 159.795 54.7656V54.9004C159.795 55.3574 159.729 55.7812 159.596 56.1719C159.463 56.5625 159.27 56.9043 159.016 57.1973C158.766 57.4863 158.463 57.7129 158.107 57.877C157.756 58.0371 157.357 58.1172 156.912 58.1172C156.467 58.1172 156.066 58.0371 155.711 57.877C155.355 57.7129 155.051 57.4863 154.797 57.1973C154.547 56.9043 154.355 56.5625 154.223 56.1719C154.09 55.7812 154.023 55.3574 154.023 54.9004ZM155.107 54.7656V54.9004C155.107 55.2168 155.145 55.5156 155.219 55.7969C155.293 56.0742 155.404 56.3203 155.553 56.5352C155.705 56.75 155.895 56.9199 156.121 57.0449C156.348 57.166 156.611 57.2266 156.912 57.2266C157.209 57.2266 157.469 57.166 157.691 57.0449C157.918 56.9199 158.105 56.75 158.254 56.5352C158.402 56.3203 158.514 56.0742 158.588 55.7969C158.666 55.5156 158.705 55.2168 158.705 54.9004V54.7656C158.705 54.4531 158.666 54.1582 158.588 53.8809C158.514 53.5996 158.4 53.3516 158.248 53.1367C158.1 52.918 157.912 52.7461 157.686 52.6211C157.463 52.4961 157.201 52.4336 156.9 52.4336C156.604 52.4336 156.342 52.4961 156.115 52.6211C155.893 52.7461 155.705 52.918 155.553 53.1367C155.404 53.3516 155.293 53.5996 155.219 53.8809C155.145 54.1582 155.107 54.4531 155.107 54.7656ZM166.412 57.3438L168.176 51.6602H169.336L166.793 58.9785C166.734 59.1348 166.656 59.3027 166.559 59.4824C166.465 59.666 166.344 59.8398 166.195 60.0039C166.047 60.168 165.867 60.3008 165.656 60.4023C165.449 60.5078 165.201 60.5605 164.912 60.5605C164.826 60.5605 164.717 60.5488 164.584 60.5254C164.451 60.502 164.357 60.4824 164.303 60.4668L164.297 59.5879C164.328 59.5918 164.377 59.5957 164.443 59.5996C164.514 59.6074 164.562 59.6113 164.59 59.6113C164.836 59.6113 165.045 59.5781 165.217 59.5117C165.389 59.4492 165.533 59.3418 165.65 59.1895C165.771 59.041 165.875 58.8359 165.961 58.5742L166.412 57.3438ZM165.117 51.6602L166.764 56.582L167.045 57.7246L166.266 58.123L163.934 51.6602H165.117ZM174.875 52.8789V60.4375H173.785V51.6602H174.781L174.875 52.8789ZM179.146 54.7773V54.9004C179.146 55.3613 179.092 55.7891 178.982 56.1836C178.873 56.5742 178.713 56.9141 178.502 57.2031C178.295 57.4922 178.039 57.7168 177.734 57.877C177.43 58.0371 177.08 58.1172 176.686 58.1172C176.283 58.1172 175.928 58.0508 175.619 57.918C175.311 57.7852 175.049 57.5918 174.834 57.3379C174.619 57.084 174.447 56.7793 174.318 56.4238C174.193 56.0684 174.107 55.668 174.061 55.2227V54.5664C174.107 54.0977 174.195 53.6777 174.324 53.3066C174.453 52.9355 174.623 52.6191 174.834 52.3574C175.049 52.0918 175.309 51.8906 175.613 51.7539C175.918 51.6133 176.27 51.543 176.668 51.543C177.066 51.543 177.42 51.6211 177.729 51.7773C178.037 51.9297 178.297 52.1484 178.508 52.4336C178.719 52.7188 178.877 53.0605 178.982 53.459C179.092 53.8535 179.146 54.293 179.146 54.7773ZM178.057 54.9004V54.7773C178.057 54.4609 178.023 54.1641 177.957 53.8867C177.891 53.6055 177.787 53.3594 177.646 53.1484C177.51 52.9336 177.334 52.7656 177.119 52.6445C176.904 52.5195 176.648 52.457 176.352 52.457C176.078 52.457 175.84 52.5039 175.637 52.5977C175.438 52.6914 175.268 52.8184 175.127 52.9785C174.986 53.1348 174.871 53.3145 174.781 53.5176C174.695 53.7168 174.631 53.9238 174.588 54.1387V55.6562C174.666 55.9297 174.775 56.1875 174.916 56.4297C175.057 56.668 175.244 56.8613 175.479 57.0098C175.713 57.1543 176.008 57.2266 176.363 57.2266C176.656 57.2266 176.908 57.166 177.119 57.0449C177.334 56.9199 177.51 56.75 177.646 56.5352C177.787 56.3203 177.891 56.0742 177.957 55.7969C178.023 55.5156 178.057 55.2168 178.057 54.9004ZM181.863 52.6562V58H180.779V51.6602H181.834L181.863 52.6562ZM183.844 51.625L183.838 52.6328C183.748 52.6133 183.662 52.6016 183.58 52.5977C183.502 52.5898 183.412 52.5859 183.311 52.5859C183.061 52.5859 182.84 52.625 182.648 52.7031C182.457 52.7812 182.295 52.8906 182.162 53.0312C182.029 53.1719 181.924 53.3398 181.846 53.5352C181.771 53.7266 181.723 53.9375 181.699 54.168L181.395 54.3438C181.395 53.9609 181.432 53.6016 181.506 53.2656C181.584 52.9297 181.703 52.6328 181.863 52.375C182.023 52.1133 182.227 51.9102 182.473 51.7656C182.723 51.6172 183.02 51.543 183.363 51.543C183.441 51.543 183.531 51.5527 183.633 51.5723C183.734 51.5879 183.805 51.6055 183.844 51.625ZM187.609 58.1172C187.168 58.1172 186.768 58.043 186.408 57.8945C186.053 57.7422 185.746 57.5293 185.488 57.2559C185.234 56.9824 185.039 56.6582 184.902 56.2832C184.766 55.9082 184.697 55.498 184.697 55.0527V54.8066C184.697 54.291 184.773 53.832 184.926 53.4297C185.078 53.0234 185.285 52.6797 185.547 52.3984C185.809 52.1172 186.105 51.9043 186.438 51.7598C186.77 51.6152 187.113 51.543 187.469 51.543C187.922 51.543 188.312 51.6211 188.641 51.7773C188.973 51.9336 189.244 52.1523 189.455 52.4336C189.666 52.7109 189.822 53.0391 189.924 53.418C190.025 53.793 190.076 54.2031 190.076 54.6484V55.1348H185.342V54.25H188.992V54.168C188.977 53.8867 188.918 53.6133 188.816 53.3477C188.719 53.082 188.562 52.8633 188.348 52.6914C188.133 52.5195 187.84 52.4336 187.469 52.4336C187.223 52.4336 186.996 52.4863 186.789 52.5918C186.582 52.6934 186.404 52.8457 186.256 53.0488C186.107 53.252 185.992 53.5 185.91 53.793C185.828 54.0859 185.787 54.4238 185.787 54.8066V55.0527C185.787 55.3535 185.828 55.6367 185.91 55.9023C185.996 56.1641 186.119 56.3945 186.279 56.5938C186.443 56.793 186.641 56.9492 186.871 57.0625C187.105 57.1758 187.371 57.2324 187.668 57.2324C188.051 57.2324 188.375 57.1543 188.641 56.998C188.906 56.8418 189.139 56.6328 189.338 56.3711L189.994 56.8926C189.857 57.0996 189.684 57.2969 189.473 57.4844C189.262 57.6719 189.002 57.8242 188.693 57.9414C188.389 58.0586 188.027 58.1172 187.609 58.1172ZM192.676 52.8789V60.4375H191.586V51.6602H192.582L192.676 52.8789ZM196.947 54.7773V54.9004C196.947 55.3613 196.893 55.7891 196.783 56.1836C196.674 56.5742 196.514 56.9141 196.303 57.2031C196.096 57.4922 195.84 57.7168 195.535 57.877C195.23 58.0371 194.881 58.1172 194.486 58.1172C194.084 58.1172 193.729 58.0508 193.42 57.918C193.111 57.7852 192.85 57.5918 192.635 57.3379C192.42 57.084 192.248 56.7793 192.119 56.4238C191.994 56.0684 191.908 55.668 191.861 55.2227V54.5664C191.908 54.0977 191.996 53.6777 192.125 53.3066C192.254 52.9355 192.424 52.6191 192.635 52.3574C192.85 52.0918 193.109 51.8906 193.414 51.7539C193.719 51.6133 194.07 51.543 194.469 51.543C194.867 51.543 195.221 51.6211 195.529 51.7773C195.838 51.9297 196.098 52.1484 196.309 52.4336C196.52 52.7188 196.678 53.0605 196.783 53.459C196.893 53.8535 196.947 54.293 196.947 54.7773ZM195.857 54.9004V54.7773C195.857 54.4609 195.824 54.1641 195.758 53.8867C195.691 53.6055 195.588 53.3594 195.447 53.1484C195.311 52.9336 195.135 52.7656 194.92 52.6445C194.705 52.5195 194.449 52.457 194.152 52.457C193.879 52.457 193.641 52.5039 193.438 52.5977C193.238 52.6914 193.068 52.8184 192.928 52.9785C192.787 53.1348 192.672 53.3145 192.582 53.5176C192.496 53.7168 192.432 53.9238 192.389 54.1387V55.6562C192.467 55.9297 192.576 56.1875 192.717 56.4297C192.857 56.668 193.045 56.8613 193.279 57.0098C193.514 57.1543 193.809 57.2266 194.164 57.2266C194.457 57.2266 194.709 57.166 194.92 57.0449C195.135 56.9199 195.311 56.75 195.447 56.5352C195.588 56.3203 195.691 56.0742 195.758 55.7969C195.824 55.5156 195.857 55.2168 195.857 54.9004ZM202.318 56.916V53.6523C202.318 53.4023 202.268 53.1855 202.166 53.002C202.068 52.8145 201.92 52.6699 201.721 52.5684C201.521 52.4668 201.275 52.416 200.982 52.416C200.709 52.416 200.469 52.4629 200.262 52.5566C200.059 52.6504 199.898 52.7734 199.781 52.9258C199.668 53.0781 199.611 53.2422 199.611 53.418H198.527C198.527 53.1914 198.586 52.9668 198.703 52.7441C198.82 52.5215 198.988 52.3203 199.207 52.1406C199.43 51.957 199.695 51.8125 200.004 51.707C200.316 51.5977 200.664 51.543 201.047 51.543C201.508 51.543 201.914 51.6211 202.266 51.7773C202.621 51.9336 202.898 52.1699 203.098 52.4863C203.301 52.7988 203.402 53.1914 203.402 53.6641V56.6172C203.402 56.8281 203.42 57.0527 203.455 57.291C203.494 57.5293 203.551 57.7344 203.625 57.9062V58H202.494C202.439 57.875 202.396 57.709 202.365 57.502C202.334 57.291 202.318 57.0957 202.318 56.916ZM202.506 54.1562L202.518 54.918H201.422C201.113 54.918 200.838 54.9434 200.596 54.9941C200.354 55.041 200.15 55.1133 199.986 55.2109C199.822 55.3086 199.697 55.4316 199.611 55.5801C199.525 55.7246 199.482 55.8945 199.482 56.0898C199.482 56.2891 199.527 56.4707 199.617 56.6348C199.707 56.7988 199.842 56.9297 200.021 57.0273C200.205 57.1211 200.43 57.168 200.695 57.168C201.027 57.168 201.32 57.0977 201.574 56.957C201.828 56.8164 202.029 56.6445 202.178 56.4414C202.33 56.2383 202.412 56.041 202.424 55.8496L202.887 56.3711C202.859 56.5352 202.785 56.7168 202.664 56.916C202.543 57.1152 202.381 57.3066 202.178 57.4902C201.979 57.6699 201.74 57.8203 201.463 57.9414C201.189 58.0586 200.881 58.1172 200.537 58.1172C200.107 58.1172 199.73 58.0332 199.406 57.8652C199.086 57.6973 198.836 57.4727 198.656 57.1914C198.48 56.9062 198.393 56.5879 198.393 56.2363C198.393 55.8965 198.459 55.5977 198.592 55.3398C198.725 55.0781 198.916 54.8613 199.166 54.6895C199.416 54.5137 199.717 54.3809 200.068 54.291C200.42 54.2012 200.812 54.1562 201.246 54.1562H202.506ZM209.465 51.6602H210.449V57.8652C210.449 58.4238 210.336 58.9004 210.109 59.2949C209.883 59.6895 209.566 59.9883 209.16 60.1914C208.758 60.3984 208.293 60.502 207.766 60.502C207.547 60.502 207.289 60.4668 206.992 60.3965C206.699 60.3301 206.41 60.2148 206.125 60.0508C205.844 59.8906 205.607 59.6738 205.416 59.4004L205.984 58.7559C206.25 59.0762 206.527 59.2988 206.816 59.4238C207.109 59.5488 207.398 59.6113 207.684 59.6113C208.027 59.6113 208.324 59.5469 208.574 59.418C208.824 59.2891 209.018 59.0977 209.154 58.8438C209.295 58.5938 209.365 58.2852 209.365 57.918V53.0547L209.465 51.6602ZM205.1 54.9004V54.7773C205.1 54.293 205.156 53.8535 205.27 53.459C205.387 53.0605 205.553 52.7188 205.768 52.4336C205.986 52.1484 206.25 51.9297 206.559 51.7773C206.867 51.6211 207.215 51.543 207.602 51.543C208 51.543 208.348 51.6133 208.645 51.7539C208.945 51.8906 209.199 52.0918 209.406 52.3574C209.617 52.6191 209.783 52.9355 209.904 53.3066C210.025 53.6777 210.109 54.0977 210.156 54.5664V55.1055C210.113 55.5703 210.029 55.9883 209.904 56.3594C209.783 56.7305 209.617 57.0469 209.406 57.3086C209.199 57.5703 208.945 57.7715 208.645 57.9121C208.344 58.0488 207.992 58.1172 207.59 58.1172C207.211 58.1172 206.867 58.0371 206.559 57.877C206.254 57.7168 205.992 57.4922 205.773 57.2031C205.555 56.9141 205.387 56.5742 205.27 56.1836C205.156 55.7891 205.1 55.3613 205.1 54.9004ZM206.184 54.7773V54.9004C206.184 55.2168 206.215 55.5137 206.277 55.791C206.344 56.0684 206.443 56.3125 206.576 56.5234C206.713 56.7344 206.887 56.9004 207.098 57.0215C207.309 57.1387 207.561 57.1973 207.854 57.1973C208.213 57.1973 208.51 57.1211 208.744 56.9688C208.979 56.8164 209.164 56.6152 209.301 56.3652C209.441 56.1152 209.551 55.8438 209.629 55.5508V54.1387C209.586 53.9238 209.52 53.7168 209.43 53.5176C209.344 53.3145 209.23 53.1348 209.09 52.9785C208.953 52.8184 208.783 52.6914 208.58 52.5977C208.377 52.5039 208.139 52.457 207.865 52.457C207.568 52.457 207.312 52.5195 207.098 52.6445C206.887 52.7656 206.713 52.9336 206.576 53.1484C206.443 53.3594 206.344 53.6055 206.277 53.8867C206.215 54.1641 206.184 54.4609 206.184 54.7773ZM212.059 54.9004V54.7656C212.059 54.3086 212.125 53.8848 212.258 53.4941C212.391 53.0996 212.582 52.7578 212.832 52.4688C213.082 52.1758 213.385 51.9492 213.74 51.7891C214.096 51.625 214.494 51.543 214.936 51.543C215.381 51.543 215.781 51.625 216.137 51.7891C216.496 51.9492 216.801 52.1758 217.051 52.4688C217.305 52.7578 217.498 53.0996 217.631 53.4941C217.764 53.8848 217.83 54.3086 217.83 54.7656V54.9004C217.83 55.3574 217.764 55.7812 217.631 56.1719C217.498 56.5625 217.305 56.9043 217.051 57.1973C216.801 57.4863 216.498 57.7129 216.143 57.877C215.791 58.0371 215.393 58.1172 214.947 58.1172C214.502 58.1172 214.102 58.0371 213.746 57.877C213.391 57.7129 213.086 57.4863 212.832 57.1973C212.582 56.9043 212.391 56.5625 212.258 56.1719C212.125 55.7812 212.059 55.3574 212.059 54.9004ZM213.143 54.7656V54.9004C213.143 55.2168 213.18 55.5156 213.254 55.7969C213.328 56.0742 213.439 56.3203 213.588 56.5352C213.74 56.75 213.93 56.9199 214.156 57.0449C214.383 57.166 214.646 57.2266 214.947 57.2266C215.244 57.2266 215.504 57.166 215.727 57.0449C215.953 56.9199 216.141 56.75 216.289 56.5352C216.438 56.3203 216.549 56.0742 216.623 55.7969C216.701 55.5156 216.74 55.2168 216.74 54.9004V54.7656C216.74 54.4531 216.701 54.1582 216.623 53.8809C216.549 53.5996 216.436 53.3516 216.283 53.1367C216.135 52.918 215.947 52.7461 215.721 52.6211C215.498 52.4961 215.236 52.4336 214.936 52.4336C214.639 52.4336 214.377 52.4961 214.15 52.6211C213.928 52.7461 213.74 52.918 213.588 53.1367C213.439 53.3516 213.328 53.5996 213.254 53.8809C213.18 54.1582 213.143 54.4531 213.143 54.7656Z" fill="#707382"/>
<path d="M8 1H265V-1H8V1ZM272 8V72H274V8H272ZM265 79H8V81H265V79ZM1 72V8H-1V72H1ZM8 79C4.13401 79 1 75.866 1 72H-1C-1 76.9706 3.02944 81 8 81V79ZM272 72C272 75.866 268.866 79 265 79V81C269.971 81 274 76.9706 274 72H272ZM265 1C268.866 1 272 4.13401 272 8H274C274 3.02944 269.971 -1 265 -1V1ZM8 -1C3.02944 -1 -1 3.02944 -1 8H1C1 4.13401 4.13401 1 8 1V-1Z" fill="#E7EBF3"/>
</svg>
