<svg width="273" height="80" viewBox="0 0 273 80" fill="none" xmlns="http://www.w3.org/2000/svg">
<path d="M0 8C0 3.58172 3.58172 0 8 0H265C269.418 0 273 3.58172 273 8V72C273 76.4183 269.418 80 265 80H8C3.58172 80 0 76.4183 0 72V8Z" fill="white"/>
<path d="M49.375 35.625C49.0298 35.625 48.75 35.3452 48.75 35V31.7969C48.75 31.4953 48.5047 31.25 48.2031 31.25H45C44.6548 31.25 44.375 30.9702 44.375 30.625C44.375 30.2798 44.6548 30 45 30H48.2031C49.1939 30 50 30.8061 50 31.7969V35C50 35.3452 49.7202 35.625 49.375 35.625Z" fill="#828EA5"/>
<path d="M30.625 35.625C30.2798 35.625 30 35.3452 30 35V31.7969C30 30.8061 30.8061 30 31.7969 30H35C35.3452 30 35.625 30.2798 35.625 30.625C35.625 30.9702 35.3452 31.25 35 31.25H31.7969C31.4953 31.25 31.25 31.4953 31.25 31.7969V35C31.25 35.3452 30.9702 35.625 30.625 35.625Z" fill="#828EA5"/>
<path d="M35 50H31.7969C30.8061 50 30 49.1939 30 48.2031V45C30 44.6548 30.2798 44.375 30.625 44.375C30.9702 44.375 31.25 44.6548 31.25 45V48.2031C31.25 48.5047 31.4953 48.75 31.7969 48.75H35C35.3452 48.75 35.625 49.0298 35.625 49.375C35.625 49.7202 35.3452 50 35 50Z" fill="#828EA5"/>
<path d="M48.2031 50H45C44.6548 50 44.375 49.7202 44.375 49.375C44.375 49.0298 44.6548 48.75 45 48.75H48.2031C48.5047 48.75 48.75 48.5047 48.75 48.2031V45C48.75 44.6548 49.0298 44.375 49.375 44.375C49.7202 44.375 50 44.6548 50 45V48.2031C50 49.1939 49.1939 50 48.2031 50Z" fill="#828EA5"/>
<path d="M37.5781 39.375H34.2969C33.3061 39.375 32.5 38.5689 32.5 37.5781V34.2969C32.5 33.3061 33.3061 32.5 34.2969 32.5H37.5781C38.5689 32.5 39.375 33.3061 39.375 34.2969V37.5781C39.375 38.5689 38.5689 39.375 37.5781 39.375ZM34.2969 33.75C33.9953 33.75 33.75 33.9953 33.75 34.2969V37.5781C33.75 37.8797 33.9953 38.125 34.2969 38.125H37.5781C37.8797 38.125 38.125 37.8797 38.125 37.5781V34.2969C38.125 33.9953 37.8797 33.75 37.5781 33.75H34.2969Z" fill="#828EA5"/>
<path d="M37.5781 47.5H34.2969C33.3061 47.5 32.5 46.6939 32.5 45.7031V42.4219C32.5 41.4311 33.3061 40.625 34.2969 40.625H37.5781C38.5689 40.625 39.375 41.4311 39.375 42.4219V45.7031C39.375 46.6939 38.5689 47.5 37.5781 47.5ZM34.2969 41.875C33.9953 41.875 33.75 42.1203 33.75 42.4219V45.7031C33.75 46.0047 33.9953 46.25 34.2969 46.25H37.5781C37.8797 46.25 38.125 46.0047 38.125 45.7031V42.4219C38.125 42.1203 37.8797 41.875 37.5781 41.875H34.2969Z" fill="#828EA5"/>
<path d="M45.7031 39.375H42.4219C41.4311 39.375 40.625 38.5689 40.625 37.5781V34.2969C40.625 33.3061 41.4311 32.5 42.4219 32.5H45.7031C46.6939 32.5 47.5 33.3061 47.5 34.2969V37.5781C47.5 38.5689 46.6939 39.375 45.7031 39.375ZM42.4219 33.75C42.1203 33.75 41.875 33.9953 41.875 34.2969V37.5781C41.875 37.8797 42.1203 38.125 42.4219 38.125H45.7031C46.0047 38.125 46.25 37.8797 46.25 37.5781V34.2969C46.25 33.9953 46.0047 33.75 45.7031 33.75H42.4219Z" fill="#828EA5"/>
<path d="M46.4844 43.75H45V41.6406C45 41.0806 44.5444 40.625 43.9844 40.625H41.6406C41.0806 40.625 40.625 41.0806 40.625 41.6406V43.9844C40.625 44.5444 41.0806 45 41.6406 45H43.75V46.4844C43.75 47.0444 44.2056 47.5 44.7656 47.5H46.4844C47.0444 47.5 47.5 47.0444 47.5 46.4844V44.7656C47.5 44.2056 47.0444 43.75 46.4844 43.75ZM41.875 41.875H43.75V43.75H41.875V41.875ZM46.25 46.25H45V45H46.25V46.25Z" fill="#828EA5"/>
<path d="M36.25 36.875H35.625C35.2798 36.875 35 36.5952 35 36.25V35.625C35 35.2798 35.2798 35 35.625 35H36.25C36.5952 35 36.875 35.2798 36.875 35.625V36.25C36.875 36.5952 36.5952 36.875 36.25 36.875Z" fill="#828EA5"/>
<path d="M44.375 36.875H43.75C43.4048 36.875 43.125 36.5952 43.125 36.25V35.625C43.125 35.2798 43.4048 35 43.75 35H44.375C44.7202 35 45 35.2798 45 35.625V36.25C45 36.5952 44.7202 36.875 44.375 36.875Z" fill="#828EA5"/>
<path d="M36.25 45H35.625C35.2798 45 35 44.7202 35 44.375V43.75C35 43.4048 35.2798 43.125 35.625 43.125H36.25C36.5952 43.125 36.875 43.4048 36.875 43.75V44.375C36.875 44.7202 36.5952 45 36.25 45Z" fill="#828EA5"/>
<path d="M85.0191 46.7906C85.2468 46.7906 85.4239 46.6134 85.4239 46.3855C85.4239 46.1577 85.2468 45.9805 85.0191 45.9805C84.7914 45.9805 84.6143 46.1577 84.6143 46.3855C84.6143 46.6134 84.7914 46.7906 85.0191 46.7906Z" fill="#2D3338"/>
<path d="M115.773 49.9254C116.001 49.9254 116.178 49.7481 116.178 49.5203C116.178 49.2924 116.001 49.1152 115.773 49.1152C115.545 49.1152 115.368 49.2924 115.368 49.5203C115.368 49.7481 115.545 49.9254 115.773 49.9254Z" fill="#2D3338"/>
<path d="M96.9451 47.4968C96.9451 47.0416 96.7934 46.6624 96.5155 46.4095L96.4902 46.3843C96.2375 46.1567 95.8585 46.0303 95.4542 46.0303C95.4289 46.0303 95.4289 46.0303 95.4289 46.0303H95.4036C94.974 46.0303 94.6203 46.1567 94.3676 46.3843L94.2665 46.4348C93.9885 46.6877 93.8369 47.0669 93.8369 47.4968V49.7977C93.8369 49.8229 93.8622 49.8482 93.8622 49.8735C93.8875 49.8988 93.9127 49.8988 93.938 49.8988H94.3423C94.3676 49.8988 94.4181 49.8988 94.4181 49.8735C94.4434 49.8482 94.4434 49.8229 94.4434 49.7977V47.5726C94.4434 47.2439 94.5192 47.0164 94.6708 46.8647C94.8224 46.713 95.0498 46.6371 95.3531 46.6371C95.6563 46.6371 95.8837 46.7382 96.0101 46.8647C96.1617 47.0164 96.2375 47.2439 96.2375 47.5726V49.7977C96.2375 49.8229 96.2628 49.8482 96.2628 49.8735C96.288 49.8988 96.3133 49.8988 96.3386 49.8988H96.7429C96.7682 49.8988 96.8187 49.8988 96.8187 49.8735C96.844 49.8482 96.844 49.8229 96.844 49.7977L96.9451 47.4968Z" fill="#2D3338"/>
<path d="M111.197 47.4968C111.197 47.0416 111.046 46.6624 110.768 46.4095L110.743 46.3843C110.49 46.1567 110.111 46.0303 109.706 46.0303C109.681 46.0303 109.681 46.0303 109.681 46.0303H109.656C109.226 46.0303 108.873 46.1567 108.62 46.3843L108.595 46.4095C108.317 46.6624 108.165 47.0416 108.165 47.4715V49.7724C108.165 49.7977 108.19 49.8229 108.19 49.8482C108.216 49.8735 108.241 49.8735 108.266 49.8735H108.67C108.696 49.8735 108.746 49.8735 108.746 49.8482C108.772 49.8229 108.772 49.7977 108.772 49.7724V47.5473C108.772 47.2186 108.847 46.9911 108.999 46.8394C109.151 46.6877 109.378 46.6118 109.681 46.6118C109.984 46.6118 110.212 46.713 110.338 46.8394C110.49 46.9911 110.566 47.2186 110.566 47.5473V49.7724C110.566 49.7977 110.591 49.8229 110.591 49.8482C110.616 49.8735 110.641 49.8735 110.667 49.8735H111.071C111.096 49.8735 111.147 49.8735 111.147 49.8482C111.172 49.8229 111.172 49.7977 111.172 49.7724L111.197 47.4968Z" fill="#2D3338"/>
<path d="M103.566 48.0027C103.566 48.3819 103.515 48.7359 103.389 48.9888C103.262 49.2416 103.035 49.3933 102.605 49.3933C102.605 49.3933 102.605 49.3933 102.58 49.3933C102.151 49.3933 101.923 49.2163 101.797 48.9635C101.645 48.7106 101.62 48.3567 101.62 47.9774V47.9521C101.62 47.5981 101.67 47.2947 101.797 47.0419C101.923 46.789 102.151 46.6373 102.58 46.612C103.01 46.612 103.237 46.789 103.363 47.0419C103.515 47.32 103.566 47.6234 103.566 48.0027ZM103.692 46.435C103.692 46.435 103.667 46.435 103.692 46.435C103.465 46.2075 103.086 46.0811 102.656 46.0811H102.631C102.277 46.0811 101.923 46.1569 101.62 46.4098V46.1822V45.0191C101.62 44.9938 101.595 44.9685 101.595 44.9433C101.569 44.918 101.544 44.918 101.519 44.918H101.115C101.089 44.918 101.039 44.918 101.039 44.9433C100.963 44.9685 100.963 45.0191 100.963 45.0444V46.2075V48.6601V49.8232C100.963 49.8484 100.988 49.8737 100.988 49.899C101.013 49.9243 101.039 49.9243 101.064 49.9243H101.468C101.494 49.9243 101.544 49.9243 101.544 49.899C101.569 49.8737 101.569 49.8484 101.569 49.8232V49.5956C101.847 49.899 102.226 50.0001 102.58 50.0001H102.605C103.035 50.0001 103.414 49.8737 103.641 49.6462C104.071 49.2416 104.172 48.6095 104.172 48.028C104.197 47.4211 104.122 46.8649 103.692 46.435Z" fill="#2D3338"/>
<path d="M92.7002 48.5083C92.7002 48.8117 92.6244 48.9887 92.5485 49.0645C92.3211 49.2668 92.0684 49.2921 91.7399 49.2921C91.4114 49.2921 91.2093 49.2415 91.1082 49.1404C91.0071 49.0645 90.9313 48.9381 90.9313 48.7358C90.9313 48.5335 90.9818 48.4071 91.1082 48.3313C91.2345 48.2301 91.4367 48.1796 91.7147 48.1796H92.7254V48.5083H92.7002ZM93.3824 47.3452C93.3824 46.9406 93.2561 46.6119 92.9781 46.3844C92.7002 46.1568 92.3211 46.0557 91.8157 46.0557H91.7905C91.2598 46.0557 90.8302 46.1821 90.527 46.5108L90.5017 46.5361C90.4764 46.5614 90.4512 46.5866 90.4259 46.6119L90.4006 46.6625C90.3754 46.6878 90.3501 46.7131 90.3501 46.7383C90.3501 46.7636 90.3754 46.7889 90.4006 46.8142L90.4259 46.8395L90.4512 46.8648L90.527 46.9153L90.7291 47.0923C90.7544 47.1176 90.7797 47.1176 90.805 47.1176C90.8302 47.1176 90.8555 47.0923 90.8808 47.067L91.0071 46.9153C91.0829 46.8395 91.1587 46.7636 91.2598 46.7383C91.3861 46.6878 91.563 46.6625 91.8157 46.6372C92.1695 46.6372 92.3969 46.7131 92.5233 46.8142C92.6496 46.9153 92.7002 47.0923 92.7254 47.3452V47.598H91.6894C91.2598 47.598 90.906 47.6992 90.6533 47.9014C90.4006 48.1037 90.249 48.4071 90.249 48.7358V48.7611C90.249 49.0645 90.3501 49.3426 90.5523 49.5449C90.8302 49.7978 91.184 49.8989 91.7147 49.8989H91.9926C92.498 49.8989 92.8518 49.7725 93.0792 49.5196C93.3066 49.2668 93.4077 48.9128 93.4077 48.483L93.3824 47.3452Z" fill="#2D3338"/>
<path d="M105.159 48.7864C105.159 48.5841 105.209 48.4577 105.336 48.3818C105.462 48.2807 105.664 48.2301 105.942 48.2301H106.953V48.5335C106.953 48.837 106.877 49.0139 106.801 49.0898C106.574 49.2921 106.321 49.3174 105.993 49.3174C105.664 49.3174 105.462 49.2668 105.361 49.1657C105.209 49.0898 105.159 48.9634 105.159 48.7864ZM107.635 47.3452C107.635 46.9406 107.509 46.6119 107.231 46.3844C106.953 46.1568 106.574 46.0557 106.069 46.0557H106.043C105.513 46.0557 105.083 46.1821 104.78 46.5108L104.755 46.5361C104.729 46.5614 104.704 46.5866 104.679 46.6119L104.654 46.6625C104.628 46.6878 104.628 46.7131 104.628 46.7383C104.628 46.7636 104.654 46.7889 104.679 46.8142L104.704 46.8395L104.729 46.8648L104.805 46.9153L105.007 47.0923C105.033 47.1176 105.058 47.1176 105.083 47.1176C105.108 47.1176 105.134 47.0923 105.159 47.067L105.26 46.9406C105.336 46.8648 105.412 46.7889 105.513 46.7636C105.639 46.7131 105.816 46.6878 106.069 46.6878C106.422 46.6878 106.65 46.7636 106.776 46.8648C106.903 46.9659 106.953 47.1429 106.978 47.3957V47.6486H105.942C105.513 47.6486 105.159 47.7497 104.906 47.952C104.654 48.1543 104.502 48.4577 104.502 48.7864V48.8117C104.502 49.1151 104.603 49.3932 104.805 49.5955C105.083 49.8483 105.437 49.9495 105.968 49.9495H106.246C106.751 49.9495 107.105 49.823 107.332 49.5702C107.56 49.3174 107.661 48.9634 107.661 48.5335L107.635 47.3452Z" fill="#2D3338"/>
<path d="M87.0904 46.0812H86.4081V45.3732V45.0445C86.4081 44.9939 86.3576 44.9434 86.2818 44.9434H85.8774C85.8522 44.9434 85.8269 44.9434 85.8016 44.9686C85.7764 44.9939 85.7764 45.0192 85.7764 45.0445V45.6766V48.9636C85.7764 49.2417 85.8522 49.4693 86.0291 49.6463C86.1807 49.8233 86.4586 49.9244 86.7619 49.9244H86.964H87.1409C87.1662 49.9244 87.1915 49.8991 87.2167 49.8991C87.242 49.8738 87.242 49.8485 87.242 49.8233V49.4187C87.242 49.3934 87.242 49.3429 87.2167 49.3429C87.1915 49.3176 87.1662 49.3176 87.1409 49.3176H86.8124C86.7366 49.3176 86.6861 49.3176 86.6608 49.2923C86.5597 49.2164 86.5597 49.2164 86.5345 49.1911C86.5092 49.1659 86.5092 49.1659 86.4839 49.1406C86.4334 49.0647 86.3828 48.9636 86.3828 48.8119V46.688H87.0651C87.0904 46.688 87.1156 46.6627 87.1409 46.6627C87.1662 46.6374 87.1662 46.6121 87.1662 46.5868V46.1823C87.1662 46.157 87.1662 46.1064 87.1409 46.1064C87.1409 46.0812 87.1156 46.0812 87.0904 46.0812Z" fill="#2D3338"/>
<path d="M90.0465 46.5361L89.9959 46.4855C89.9959 46.4855 89.9959 46.4855 89.9959 46.4602L89.9707 46.4349H89.9454L89.9201 46.4096C89.6927 46.1568 89.3895 46.0557 89.0862 46.0557H89.061C88.8335 46.0557 88.5808 46.1568 88.4292 46.3338L88.3281 46.4602V46.4096V46.1821C88.3281 46.1568 88.3029 46.1315 88.3029 46.1062C88.2776 46.0809 88.2523 46.0809 88.2271 46.0809H87.8228C87.7975 46.0809 87.7469 46.0809 87.7469 46.1062C87.7217 46.1315 87.7217 46.1568 87.7217 46.1821V46.4096V49.7978C87.7217 49.823 87.7469 49.8483 87.7469 49.8736C87.7722 49.8989 87.7975 49.8989 87.8228 49.8989H87.8986H88.1513H88.2271C88.2523 49.8989 88.3029 49.8989 88.3029 49.8736C88.3281 49.8483 88.3281 49.823 88.3281 49.7978V49.7472V47.598V47.421C88.3281 47.2187 88.404 47.0418 88.505 46.9153C88.6061 46.7636 88.783 46.6878 89.0104 46.6878C89.1368 46.6878 89.2126 46.7131 89.2631 46.7383C89.3389 46.7636 89.3895 46.8142 89.4653 46.8901L89.4905 46.9153L89.5663 47.0165C89.5916 47.0418 89.6169 47.0418 89.6422 47.0418C89.6674 47.0418 89.718 47.0418 89.718 47.0165L90.0212 46.7383C90.0465 46.7131 90.0717 46.6878 90.0717 46.6625C90.097 46.6119 90.0717 46.5614 90.0465 46.5361Z" fill="#2D3338"/>
<path d="M100.206 47.9265C99.9531 47.7495 99.6751 47.6989 99.3466 47.6737L98.7402 47.6231C98.4875 47.5978 98.3359 47.5472 98.2348 47.4714C98.159 47.4208 98.1084 47.3197 98.1084 47.168C98.1084 46.991 98.1842 46.8646 98.2853 46.7887C98.4117 46.6876 98.6138 46.637 98.8918 46.637C99.2456 46.637 99.5488 46.7128 99.8015 46.8898L99.9531 46.991C99.9784 47.0163 100.004 47.0163 100.029 47.0163C100.054 47.0163 100.079 46.991 100.105 46.9657L100.332 46.637C100.357 46.6117 100.357 46.5864 100.357 46.5359C100.357 46.5106 100.357 46.5106 100.332 46.4853C100.332 46.46 100.307 46.46 100.307 46.4347L100.282 46.4094C99.9278 46.1566 99.4224 46.0049 98.8918 46.0049C98.4622 46.0049 98.0832 46.106 97.8305 46.3083C97.5778 46.5106 97.4009 46.7887 97.4009 47.1427C97.4009 47.4461 97.502 47.6989 97.7294 47.8759C97.9568 48.0529 98.26 48.1541 98.6644 48.1793L99.2708 48.2299C99.4982 48.2552 99.6499 48.3058 99.7257 48.3816C99.8015 48.4322 99.852 48.5333 99.852 48.685C99.852 48.862 99.7762 49.0137 99.6246 49.0896C99.473 49.1907 99.2203 49.2413 98.8918 49.2413C98.4369 49.2413 98.1084 49.1402 97.8557 48.9379L97.7294 48.8367C97.7041 48.8115 97.6788 48.8115 97.6536 48.8115C97.6283 48.8115 97.603 48.8367 97.5778 48.862L97.3251 49.1654C97.2998 49.1907 97.2998 49.216 97.2998 49.2666C97.2998 49.2919 97.3251 49.3171 97.3503 49.3424L97.4767 49.4436L97.502 49.4688C97.881 49.747 98.3611 49.8734 98.9423 49.8734C99.4224 49.8734 99.8267 49.7723 100.13 49.57C100.433 49.3677 100.585 49.0643 100.585 48.7103V48.685C100.56 48.3816 100.433 48.1035 100.206 47.9265Z" fill="#2D3338"/>
<path d="M115.013 49.7474L114.508 49.0394L113.497 47.5729L114.28 46.7386L114.735 46.2582L114.761 46.2329C114.811 46.1823 114.786 46.1317 114.761 46.1064C114.735 46.0812 114.71 46.0812 114.685 46.0812H114.154C114.129 46.0812 114.078 46.1064 114.053 46.1317L112.284 48.0028V46.4351V45.0445C112.284 45.0192 112.259 44.9939 112.259 44.9686C112.234 44.9434 112.208 44.9434 112.183 44.9434H111.779C111.754 44.9434 111.703 44.9434 111.703 44.9686C111.678 44.9939 111.678 45.0192 111.678 45.0445V46.4351V49.8233C111.678 49.8485 111.703 49.8738 111.703 49.8991C111.728 49.9244 111.754 49.9244 111.779 49.9244H112.183C112.208 49.9244 112.259 49.9244 112.259 49.8991C112.284 49.8738 112.284 49.8485 112.284 49.8233V48.8625L113.042 48.0281L113.548 48.7866L114.28 49.8738C114.306 49.8991 114.331 49.9244 114.382 49.9244H114.912C114.937 49.9244 114.988 49.9244 114.988 49.8991C115.039 49.8738 115.064 49.798 115.013 49.7474Z" fill="#2D3338"/>
<path d="M110.516 44.9434H110.592L110.693 45.2472L110.794 44.9434H110.87V45.3231H110.819V45.0953V45.0699C110.819 45.0446 110.819 45.0446 110.819 45.0193L110.718 45.3231H110.667L110.566 45.0193V45.0699C110.566 45.0953 110.566 45.0953 110.566 45.1206V45.3484H110.516V44.9434V44.9434Z" fill="#2D3338"/>
<path d="M111.248 45.1206C111.274 45.1206 111.299 45.1206 111.299 45.0953C111.299 45.0953 111.324 45.0699 111.324 45.0446C111.324 45.0193 111.324 44.994 111.299 44.994C111.299 44.994 111.274 44.994 111.248 44.994H111.122V45.1206H111.248V45.1206ZM111.071 44.9434H111.248C111.274 44.9434 111.299 44.9434 111.324 44.9434C111.35 44.9687 111.375 44.994 111.375 45.0193C111.375 45.0446 111.375 45.0699 111.35 45.0699C111.35 45.0953 111.324 45.0953 111.299 45.0953C111.324 45.0953 111.324 45.1206 111.324 45.1206C111.324 45.1206 111.324 45.1459 111.324 45.1712V45.2218C111.324 45.2472 111.324 45.2472 111.324 45.2472C111.324 45.2472 111.324 45.2725 111.35 45.2725H111.324V45.2472V45.1965C111.324 45.1712 111.324 45.1459 111.299 45.1459C111.299 45.1459 111.274 45.1459 111.248 45.1459H111.147V45.2978H111.071V44.9434Z" fill="#2D3338"/>
<path d="M110.97 45.3221C110.944 45.3221 110.944 45.3221 110.944 45.2968C110.944 45.2715 110.944 45.2715 110.97 45.2715C110.995 45.2715 110.995 45.2715 110.995 45.2968C110.995 45.2968 110.995 45.3221 110.97 45.3221Z" fill="#2D3338"/>
<path d="M111.476 45.3221C111.451 45.3221 111.451 45.3221 111.451 45.2968C111.451 45.2715 111.451 45.2715 111.476 45.2715C111.502 45.2715 111.502 45.2715 111.502 45.2968C111.502 45.2968 111.502 45.3221 111.476 45.3221Z" fill="#2D3338"/>
<path d="M89.3396 30.0752C88.0256 30.0752 86.8885 30.5303 86.0293 31.39C84.7911 32.6542 84.6143 34.3988 84.6143 35.9412C84.6143 37.4835 84.7911 39.2282 86.0293 40.4924C86.8885 41.3521 88.0256 41.8072 89.3396 41.8072C90.6537 41.8072 91.7908 41.3521 92.6499 40.4924C93.8881 39.2282 94.065 37.4835 94.065 35.9412C94.065 34.3988 93.8881 32.6542 92.6499 31.39C91.7908 30.5303 90.6284 30.0752 89.3396 30.0752ZM87.4192 32.6036C87.9246 32.098 88.5816 31.8198 89.3396 31.8198C90.0977 31.8198 90.78 32.098 91.2854 32.6036C92.0687 33.3875 92.1193 34.7528 92.1193 35.9665C92.1193 37.1801 92.0435 38.5455 91.2854 39.3293C90.78 39.835 90.0977 40.1131 89.3396 40.1131C88.5816 40.1131 87.9246 39.835 87.4192 39.3293C86.6611 38.5708 86.56 37.256 86.56 35.9665C86.5347 34.6517 86.6611 33.3622 87.4192 32.6036Z" fill="#2D3338"/>
<path d="M104.803 34.4248C104.803 33.0594 104.323 31.9216 103.464 31.1378L103.413 31.0872H103.388C102.579 30.3793 101.493 30.0253 100.204 30H100.179H100.154C100.103 30 100.078 30 100.078 30C100.053 30 100.027 30 100.002 30H99.9767H99.9515H99.9262C98.6374 30.0253 97.5509 30.3793 96.7422 31.0619L96.6664 31.1378C95.8073 31.8963 95.3524 33.0594 95.3271 34.3995V41.378C95.3271 41.4791 95.3777 41.555 95.4282 41.6308C95.504 41.7067 95.6051 41.732 95.6809 41.732H96.9191C97.0202 41.732 97.1213 41.6814 97.1718 41.6308C97.2476 41.555 97.2729 41.4791 97.2729 41.378V34.6271C97.2729 33.641 97.5256 32.933 97.9804 32.4779C98.4606 32.0228 99.1428 31.7699 100.053 31.7699C100.988 31.7699 101.645 32.0228 102.099 32.4779C102.554 32.933 102.807 33.641 102.807 34.6271V41.378C102.807 41.4791 102.857 41.555 102.908 41.6308C102.984 41.7067 103.085 41.732 103.161 41.732H104.399C104.5 41.732 104.601 41.6814 104.652 41.6308C104.727 41.555 104.753 41.4791 104.753 41.378L104.803 34.4248Z" fill="#2D3338"/>
<path d="M143.34 42.8452C143.239 43.1487 143.037 43.6038 142.91 43.9072C142.91 43.9072 142.683 44.4129 142.354 44.7669C142.051 45.0703 141.697 45.2725 141.318 45.399C140.939 45.5254 140.661 45.5254 140.661 45.5254C140.358 45.5507 139.903 45.576 139.651 45.576C139.398 45.576 139.196 45.3231 139.196 44.9944V44.16C139.196 43.8566 139.322 43.5785 139.474 43.5785C139.625 43.5785 140.004 43.5532 140.333 43.5279C140.333 43.5279 140.56 43.5026 140.788 43.3256C141.015 43.1487 141.116 42.9211 141.116 42.9211C141.242 42.643 141.445 42.1626 141.546 41.8591L141.773 41.227C141.874 40.9236 141.874 40.4432 141.773 40.1651L138.311 30.7087C138.21 30.4053 138.362 30.1777 138.69 30.1777H139.903C140.206 30.1777 140.56 30.4306 140.661 30.7087L142.91 37.3838C143.011 37.6872 143.163 37.6872 143.264 37.3838L145.462 30.7087C145.564 30.4053 145.892 30.1777 146.221 30.1777H147.459C147.762 30.1777 147.939 30.4306 147.838 30.7087L143.34 42.8452Z" fill="#2D3338"/>
<path d="M130.15 38.2675V38.2422C130.15 37.6353 130.327 37.2814 130.68 37.0032C131.034 36.7251 131.641 36.5481 132.55 36.5481H135.583V37.4836C135.583 38.4192 135.381 38.9249 135.103 39.1524C134.446 39.7592 133.637 39.8604 132.626 39.8604H132.601C131.641 39.8604 131.009 39.6834 130.655 39.4305C130.327 39.2283 130.175 38.8743 130.15 38.2675ZM137.629 33.9438C137.629 32.7555 137.25 31.7441 136.417 31.0867C135.583 30.404 134.395 30.1006 132.879 30.1006H132.828H132.803C131.211 30.1006 129.922 30.4546 128.962 31.4659L128.912 31.5165C128.836 31.5924 128.76 31.6682 128.709 31.7694L128.608 31.8958C128.558 31.9716 128.507 32.0728 128.532 32.1486C128.532 32.2498 128.583 32.3256 128.659 32.4015L128.709 32.452C128.735 32.4773 128.76 32.5026 128.785 32.5279L129.013 32.7049L129.594 33.2106C129.67 33.2864 129.771 33.3117 129.846 33.3117C129.948 33.3117 130.023 33.2611 130.099 33.1853L130.478 32.7555C130.706 32.5026 130.958 32.3256 131.236 32.1992C131.641 32.0222 132.171 31.9463 132.904 31.9211H132.929C133.991 31.9211 134.648 32.1486 135.052 32.4773C135.431 32.806 135.633 33.3117 135.633 34.0702V34.0955V34.8288H132.475C131.186 34.8288 130.124 35.1322 129.366 35.7137C128.608 36.2953 128.179 37.2055 128.179 38.2675V38.318C128.179 39.203 128.507 40.0627 129.114 40.6695C129.922 41.4786 131.009 41.7567 132.626 41.7567H132.651H133.485C134.976 41.7567 136.063 41.3774 136.745 40.6442C137.427 39.9109 137.705 38.8237 137.705 37.4836L137.629 33.9438Z" fill="#2D3338"/>
<path d="M82.1877 32.5798C82.8447 32.5798 83.3753 32.0488 83.3753 31.3914C83.3753 30.734 82.8447 30.1777 82.1877 30.1777C81.5307 30.1777 81 30.7087 81 31.3661C81 32.0235 81.5307 32.5798 82.1877 32.5798Z" fill="#2D3338"/>
<path d="M147.813 41.783C148.47 41.783 149 41.252 149 40.5946C149 39.9372 148.47 39.4062 147.813 39.4062C147.156 39.4062 146.625 39.9372 146.625 40.5946C146.625 41.252 147.156 41.783 147.813 41.783Z" fill="#2D3338"/>
<path d="M115.772 35.588C115.772 32.1493 113.952 30.0254 111.021 30.0254C108.039 30.0254 106.271 32.2251 106.271 35.9167C106.271 39.7093 108.065 41.8079 111.324 41.8079C113.346 41.8079 114.433 41.1253 115.519 40.038L115.671 39.8863L114.281 38.6474L114.155 38.7738C113.27 39.6588 112.537 39.9875 111.375 39.9875C109.454 39.9875 108.368 38.7738 108.292 36.5235H115.772V35.588ZM108.292 34.9306C108.343 34.2226 108.393 33.8939 108.595 33.3377C109 32.3768 109.935 31.7953 111.021 31.7953C112.108 31.7953 113.043 32.4021 113.447 33.3377C113.674 33.8686 113.725 34.1973 113.75 34.9306H108.292Z" fill="#2D3338"/>
<path d="M125.121 36.043C125.121 37.1555 124.995 38.0405 124.591 38.8243C124.161 39.5828 123.504 40.0885 122.19 40.0885H122.165H122.14C120.826 40.0885 120.143 39.5828 119.739 38.8243C119.31 38.0405 119.183 37.1555 119.183 36.043V35.9671C119.183 34.8546 119.31 33.7421 119.739 32.9583C120.169 32.1997 120.826 31.6941 122.14 31.6941H122.165C122.19 31.6941 122.216 31.6941 122.216 31.6941C123.504 31.7193 124.187 32.225 124.591 32.9583C125.02 33.7421 125.121 34.8293 125.147 35.9418V35.9671V35.9924V36.043H125.121ZM125.501 40.7206C126.789 39.4817 127.093 37.7876 127.093 36.0177C127.093 34.2478 126.789 32.3262 125.475 31.0619C124.768 30.4046 123.631 30 122.342 30H122.266C121.179 30 120.017 30.3034 119.208 31.2389V30.531C119.208 30.4298 119.158 30.354 119.107 30.2781C119.032 30.2023 118.93 30.177 118.855 30.177H117.642C117.541 30.177 117.44 30.2023 117.364 30.2781C117.288 30.354 117.263 30.4298 117.263 30.531V34.0202V41.5044V45.019C117.263 45.1201 117.313 45.1959 117.364 45.2718C117.44 45.3477 117.541 45.3729 117.616 45.3729H118.829C118.93 45.3729 119.032 45.3224 119.082 45.2718C119.158 45.1959 119.183 45.1201 119.183 45.019V41.5044V40.8217C120.118 41.6056 121.179 41.8331 122.241 41.8331C122.266 41.8331 122.291 41.8331 122.317 41.8331C123.631 41.8078 124.768 41.4033 125.501 40.7206C125.501 40.7459 125.475 40.7459 125.501 40.7206Z" fill="#2D3338"/>
<path d="M8 1H265V-1H8V1ZM272 8V72H274V8H272ZM265 79H8V81H265V79ZM1 72V8H-1V72H1ZM8 79C4.13401 79 1 75.866 1 72H-1C-1 76.9706 3.02944 81 8 81V79ZM272 72C272 75.866 268.866 79 265 79V81C269.971 81 274 76.9706 274 72H272ZM265 1C268.866 1 272 4.13401 272 8H274C274 3.02944 269.971 -1 265 -1V1ZM8 -1C3.02944 -1 -1 3.02944 -1 8H1C1 4.13401 4.13401 1 8 1V-1Z" fill="#E7EBF3"/>
</svg>
