<svg width="141" height="140" viewBox="0 0 141 140" fill="none" xmlns="http://www.w3.org/2000/svg">
<path fill-rule="evenodd" clip-rule="evenodd" d="M140.23 130C140.23 91.3401 108.89 60 70.2305 60C31.5705 60 0.230469 91.3401 0.230469 130H140.23Z" fill="#F9FBFE"/>
<path d="M40.7561 117.896H99.7035C103.773 117.896 107.072 114.597 107.072 110.527V36.843C107.072 32.7736 103.773 29.4746 99.7035 29.4746H40.7561C36.6866 29.4746 33.3877 32.7736 33.3877 36.843V110.527C33.3877 114.597 36.6866 117.896 40.7561 117.896Z" fill="#5EEDC7"/>
<path d="M33.3877 110.527H107.072V29.4746H33.3877V110.527Z" fill="#00A7A8"/>
<path d="M33.3879 103.159H107.072C111.142 103.159 114.441 99.8599 114.441 95.7904V36.843C114.441 32.7736 111.142 29.4746 107.072 29.4746H33.3879C29.3185 29.4746 26.0195 32.7736 26.0195 36.843V95.7904C26.0195 99.8599 29.3185 103.159 33.3879 103.159Z" fill="#E7EBF3"/>
<path d="M44.441 69.9986H51.8095C53.8442 69.9986 55.4937 68.3491 55.4937 66.3144V58.9459C55.4937 56.9112 53.8442 55.2617 51.8095 55.2617H44.441C42.4063 55.2617 40.7568 56.9112 40.7568 58.9459V66.3144C40.7568 68.3491 42.4063 69.9986 44.441 69.9986Z" fill="#FCFDFE"/>
<path d="M66.5465 69.9986H73.9149C75.9497 69.9986 77.5991 68.3491 77.5991 66.3144V58.9459C77.5991 56.9112 75.9497 55.2617 73.9149 55.2617H66.5465C64.5118 55.2617 62.8623 56.9112 62.8623 58.9459V66.3144C62.8623 68.3491 64.5118 69.9986 66.5465 69.9986Z" fill="#FCFDFE"/>
<path d="M88.651 69.9986H96.0194C98.0542 69.9986 99.7036 68.3491 99.7036 66.3144V58.9459C99.7036 56.9112 98.0542 55.2617 96.0194 55.2617H88.651C86.6163 55.2617 84.9668 56.9112 84.9668 58.9459V66.3144C84.9668 68.3491 86.6163 69.9986 88.651 69.9986Z" fill="#FCFDFE"/>
<path d="M44.441 92.1079H51.8095C53.8442 92.1079 55.4937 90.4585 55.4937 88.4237V81.0553C55.4937 79.0206 53.8442 77.3711 51.8095 77.3711H44.441C42.4063 77.3711 40.7568 79.0206 40.7568 81.0553V88.4237C40.7568 90.4585 42.4063 92.1079 44.441 92.1079Z" fill="#FCFDFE"/>
<path d="M66.5465 92.1079H73.9149C75.9497 92.1079 77.5991 90.4585 77.5991 88.4237V81.0553C77.5991 79.0206 75.9497 77.3711 73.9149 77.3711H66.5465C64.5118 77.3711 62.8623 79.0206 62.8623 81.0553V88.4237C62.8623 90.4585 64.5118 92.1079 66.5465 92.1079Z" fill="#FCFDFE"/>
<path d="M88.651 92.1079H96.0194C98.0542 92.1079 99.7036 90.4585 99.7036 88.4237V81.0553C99.7036 79.0206 98.0542 77.3711 96.0194 77.3711H88.651C86.6163 77.3711 84.9668 79.0206 84.9668 81.0553V88.4237C84.9668 90.4585 86.6163 92.1079 88.651 92.1079Z" fill="#FCFDFE"/>
<path d="M26.0195 47.8957H114.441V36.843C114.441 32.7736 111.142 29.4746 107.072 29.4746H33.3879C29.3185 29.4746 26.0195 32.7736 26.0195 36.843V47.8957Z" fill="#C9D0E4"/>
<path d="M46.2819 40.5265H49.9661C52.0008 40.5265 53.6503 38.877 53.6503 36.8423V25.7897C53.6503 23.7549 52.0008 22.1055 49.9661 22.1055H46.2819C44.2471 22.1055 42.5977 23.7549 42.5977 25.7897V36.8423C42.5977 38.877 44.2471 40.5265 46.2819 40.5265Z" fill="#A0AFCA"/>
<path d="M41.6774 29.4746H33.388C29.3185 29.4746 26.0195 32.7736 26.0195 36.843V95.7904C26.0195 99.8599 29.3185 103.159 33.3879 103.159H107.072C111.142 103.159 114.441 99.8599 114.441 95.7904V36.843C114.441 32.7736 111.142 29.4746 107.072 29.4746H68.388" stroke="#2D3338" stroke-width="1.38158" stroke-linecap="round" stroke-linejoin="round"/>
<path d="M90.4938 40.5265H94.178C96.2127 40.5265 97.8622 38.877 97.8622 36.8423V25.7897C97.8622 23.7549 96.2127 22.1055 94.178 22.1055H90.4938C88.459 22.1055 86.8096 23.7549 86.8096 25.7897V36.8423C86.8096 38.877 88.459 40.5265 90.4938 40.5265Z" fill="#A0AFCA"/>
<circle cx="103.387" cy="92.1066" r="18.4211" fill="#6B196B"/>
<path d="M108.912 87.9619C108.912 86.8689 108.588 85.8004 107.981 84.8916C107.373 83.9828 106.51 83.2745 105.501 82.8562C104.491 82.4379 103.38 82.3285 102.308 82.5417C101.236 82.755 100.251 83.2813 99.478 84.0542C98.7051 84.827 98.1788 85.8117 97.9656 86.8837C97.7523 87.9557 97.8618 89.0669 98.28 90.0767C98.6983 91.0865 99.4066 91.9496 100.315 92.5568C101.224 93.1641 102.293 93.4882 103.386 93.4882L103.386 90.725C102.839 90.725 102.305 90.563 101.851 90.2593C101.396 89.9557 101.042 89.5242 100.833 89.0193C100.624 88.5144 100.569 87.9588 100.676 87.4228C100.782 86.8868 101.045 86.3944 101.432 86.008C101.818 85.6216 102.311 85.3584 102.847 85.2518C103.383 85.1452 103.938 85.1999 104.443 85.409C104.948 85.6182 105.38 85.9723 105.683 86.4267C105.987 86.8811 106.149 87.4154 106.149 87.9619H108.912Z" fill="white"/>
<path d="M97.8595 96.253C97.8595 97.346 98.1836 98.4144 98.7908 99.3232C99.3981 100.232 100.261 100.94 101.271 101.359C102.281 101.777 103.392 101.886 104.464 101.673C105.536 101.46 106.521 100.934 107.293 100.161C108.066 99.3878 108.593 98.4031 108.806 97.3311C109.019 96.2591 108.91 95.148 108.491 94.1382C108.073 93.1283 107.365 92.2653 106.456 91.658C105.547 91.0508 104.479 90.7267 103.386 90.7267L103.386 93.4898C103.932 93.4898 104.467 93.6519 104.921 93.9555C105.375 94.2591 105.729 94.6907 105.939 95.1956C106.148 95.7005 106.202 96.256 106.096 96.792C105.989 97.328 105.726 97.8204 105.34 98.2068C104.953 98.5933 104.461 98.8564 103.925 98.963C103.389 99.0697 102.833 99.0149 102.328 98.8058C101.823 98.5967 101.392 98.2425 101.088 97.7881C100.785 97.3337 100.623 96.7995 100.623 96.253H97.8595Z" fill="white"/>
<rect x="102.004" y="81.0527" width="2.76316" height="1.84211" fill="white"/>
<rect x="102.004" y="101.316" width="2.76316" height="1.84211" fill="white"/>
<circle cx="14.9674" cy="105.921" r="3.68421" fill="#A6469D"/>
<circle cx="123.651" cy="37.762" r="1.84211" fill="#D271C1"/>
</svg>
