<svg width="141" height="140" viewBox="0 0 141 140" fill="none" xmlns="http://www.w3.org/2000/svg">
<path fill-rule="evenodd" clip-rule="evenodd" d="M140.517 130C140.517 91.3401 109.177 60 70.5166 60C31.8567 60 0.516602 91.3401 0.516602 130H140.517Z" fill="#F9FBFE"/>
<path d="M48.4101 115.127H103.673C107.743 115.127 111.042 111.828 111.042 107.759V96.706C111.042 93.6539 108.567 91.1797 105.515 91.1797H48.4101C45.358 91.1797 42.8838 93.6539 42.8838 96.706V109.601C42.8838 112.653 45.358 115.127 48.4101 115.127Z" fill="#5EEDC7"/>
<path d="M41.041 115.127H96.3041C100.374 115.127 103.673 111.828 103.673 107.759V91.1797H41.041C37.9889 91.1797 35.5146 93.6539 35.5146 96.706V109.601C35.5146 112.653 37.9889 115.127 41.041 115.127Z" fill="#00A7A8"/>
<path d="M41.041 115.127H96.3041C100.374 115.127 103.673 111.828 103.673 107.758V104.074H41.041C37.9889 104.074 35.5146 106.548 35.5146 109.601C35.5146 112.653 37.9889 115.127 41.041 115.127Z" fill="#007F8D"/>
<path d="M35.5149 115.128H101.831C98.607 115.128 96.3044 112.365 96.3044 109.602V32.2337C96.3044 28.1642 93.0054 24.8652 88.936 24.8652H35.5149C31.4454 24.8652 28.1465 28.1642 28.1465 32.2337V107.76C28.1465 111.829 31.4454 115.128 35.5149 115.128Z" fill="#E7EBF3"/>
<path d="M35.5149 115.127H101.831C98.607 115.127 96.3044 112.364 96.3044 109.601V104.074H28.1465V107.758C28.1465 111.828 31.4454 115.127 35.5149 115.127Z" fill="#C9D0E4"/>
<rect x="39.1992" y="41.4453" width="46.0526" height="9.21053" rx="1.84211" fill="#FCFDFE"/>
<rect x="39.1992" y="60.6641" width="46.0526" height="9.21053" rx="1.84211" fill="#F9FBFE"/>
<rect x="39.0156" y="79.334" width="28" height="9.33333" rx="1.84211" fill="#F9FBFE"/>
<path d="M77.8833 115.128H35.5149C31.4454 115.128 28.1465 111.829 28.1465 107.76V32.2337C28.1465 28.1642 31.4454 24.8652 35.5149 24.8652H88.936C93.0054 24.8652 96.3044 28.1642 96.3044 32.2337V109.602C96.3044 112.365 98.607 115.128 101.831 115.128H92.6202" stroke="#2D3338" stroke-width="1.38158" stroke-linecap="round" stroke-linejoin="round"/>
<circle cx="94.464" cy="69.9992" r="18.4211" fill="#6B196B"/>
<path fill-rule="evenodd" clip-rule="evenodd" d="M94.4642 62.1714C93.1925 62.1714 92.1616 63.2023 92.1616 64.474C92.1616 65.7457 93.1925 66.7766 94.4642 66.7766C95.7359 66.7766 96.7669 65.7457 96.7669 64.474C96.7669 63.2023 95.7359 62.1714 94.4642 62.1714ZM89.3984 64.474C89.3984 61.6762 91.6665 59.4082 94.4642 59.4082C97.262 59.4082 99.53 61.6762 99.53 64.474C99.53 67.2718 97.262 69.5398 94.4642 69.5398C91.6665 69.5398 89.3984 67.2718 89.3984 64.474Z" fill="white"/>
<path fill-rule="evenodd" clip-rule="evenodd" d="M94.4639 74.144C91.1574 74.144 88.477 76.8244 88.477 80.1309H85.7139C85.7139 75.2984 89.6314 71.3809 94.4639 71.3809C99.2964 71.3809 103.214 75.2984 103.214 80.1309H100.451C100.451 76.8244 97.7703 74.144 94.4639 74.144Z" fill="white"/>
<circle cx="17.0963" cy="32.2369" r="3.68421" fill="#A6469D"/>
<circle cx="120.254" cy="86.5765" r="1.84211" fill="#D271C1"/>
</svg>
