<svg width="250" height="250" viewBox="0 0 250 250" fill="none" xmlns="http://www.w3.org/2000/svg">
<path d="M119.506 239.165C185.501 239.125 238.997 234.353 238.994 228.506C238.99 222.66 185.488 217.953 119.494 217.993C53.4991 218.034 0.00288089 222.806 0.00643465 228.652C0.0099884 234.499 53.512 239.206 119.506 239.165Z" fill="#F9FBFE"/>
<path d="M83.024 223.957H17.5246C17.5246 223.957 8.13591 206.068 16.12 198.93C26.8394 189.324 41.7727 201.133 42.1423 201.485C41.9205 200.78 12.0351 172.353 32.4161 156.846C57.1336 138.039 83.024 223.957 83.024 223.957Z" fill="#E7EBF3"/>
<path d="M66.021 223.956H64.9121C62.3985 211.266 57.2975 190.117 49.5352 177.779C49.3134 177.515 49.3874 177.074 49.6831 176.898C49.9048 176.722 50.2745 176.722 50.4223 176.986C58.3325 189.588 63.4335 211.178 66.021 223.956Z" fill="#FCFDFE"/>
<path d="M67.277 199.635C66.9812 199.635 66.6855 199.37 66.6855 198.93V187.826C66.6855 187.474 66.9073 187.121 67.277 187.121C67.6466 187.121 67.8684 187.385 67.8684 187.826V199.018C67.8684 199.37 67.5727 199.635 67.277 199.635Z" fill="#FCFDFE"/>
<path d="M34.823 223.957H33.4923C30.1656 218.053 27.726 213.118 27.6521 213.118C27.5042 212.853 27.5781 212.413 27.8738 212.237C28.1695 212.06 28.4652 212.148 28.6131 212.501C28.6131 212.501 31.2745 217.788 34.823 223.957Z" fill="#FCFDFE"/>
<path d="M57.163 195.614H55.8323C52.5056 189.709 34.7318 166.602 34.6579 166.602C34.5101 166.338 34.584 165.897 34.8797 165.721C35.1754 165.545 35.4711 165.633 35.619 165.985C35.619 165.985 53.6145 189.445 57.163 195.614Z" fill="#FCFDFE"/>
<path d="M212.69 223.957H173.2C173.2 223.957 179.253 158.417 211.103 165.525C235.214 170.947 212.69 223.957 212.69 223.957Z" fill="#E7EBF3"/>
<path d="M206.325 183.207C199.62 194.897 195.117 211.479 192.515 223.288H191.014C193.616 211.359 198.219 194.182 205.124 182.253C205.324 181.776 205.825 181.776 206.125 182.014C206.525 182.253 206.525 182.849 206.325 183.207Z" fill="#FCFDFE"/>
<path d="M201.62 211.479C201.419 211.479 201.219 211.359 201.019 211.121C200.719 210.763 200.819 210.167 201.119 209.809L212.628 198.238C212.928 197.88 213.428 197.999 213.729 198.357C214.029 198.715 213.929 199.311 213.628 199.669L202.12 211.24C201.92 211.359 201.82 211.479 201.62 211.479Z" fill="#FCFDFE"/>
<path d="M220.981 190.285L233.635 205.908L205.124 232.231C205.124 232.231 201.766 228.56 203.953 224.811C205.046 222.858 206.062 219.421 206.296 215.672C206.296 215.437 206.296 215.125 206.374 214.89C206.452 213.953 206.452 213.016 206.374 212.078C206.374 211.844 206.296 211.532 206.296 211.297C206.062 209.188 205.515 207.157 204.578 205.439L220.981 190.285Z" fill="black"/>
<path d="M213.717 211.062C211.295 211.374 208.796 211.765 206.374 212.156C206.374 211.921 206.296 211.609 206.296 211.374C208.717 211.062 211.139 210.671 213.56 210.359C214.029 210.281 214.185 211.062 213.717 211.062Z" fill="#E7EBF3"/>
<path d="M213.013 215.437C210.825 215.515 208.56 215.594 206.373 215.672C206.373 215.437 206.373 215.125 206.451 214.891C208.638 214.812 210.904 214.734 213.091 214.656C213.559 214.656 213.481 215.437 213.013 215.437Z" fill="#E7EBF3"/>
<path d="M166.38 209.812L165.052 229.887H126.23C126.23 229.887 126.23 224.966 130.37 223.638C132.479 223.013 135.604 221.061 138.338 218.561C138.494 218.405 138.728 218.249 138.885 218.014C139.51 217.389 140.213 216.686 140.759 215.983C140.916 215.749 141.072 215.593 141.228 215.358C142.478 213.64 143.493 211.765 143.884 209.891H166.38V209.812Z" fill="black"/>
<path d="M207.858 162.946C203.874 148.886 197.391 109.596 197.391 109.596L174.973 114.751C174.348 112.486 173.879 111.08 173.879 111.08L151.227 119.75C151.227 138.029 141.072 210.829 141.072 210.829L170.442 214.969C170.442 214.969 173.801 183.177 175.988 158.885C184.268 187.161 198.25 207.783 203.874 211.298L225.277 193.723C225.355 193.644 211.842 177.007 207.858 162.946Z" fill="#E7EBF3"/>
<path d="M170.989 215.594L140.369 211.298L140.447 210.751C140.525 210.048 150.602 137.716 150.602 119.75V119.36L174.192 110.299L174.348 110.924C174.348 110.924 174.738 112.173 175.285 114.126L197.782 108.971L197.86 109.596C197.938 109.986 204.421 149.042 208.327 162.946C212.232 176.694 225.59 193.254 225.668 193.41L226.058 193.879L203.874 212.079L203.484 211.844C198.094 208.564 184.737 189.27 176.223 162.009C174.035 185.599 170.989 214.813 170.911 215.125L170.989 215.594ZM141.697 210.282L169.896 214.188C170.364 209.657 173.332 180.912 175.363 158.728L175.676 155.682L176.535 158.65C184.737 186.536 198.172 206.533 203.796 210.438L224.418 193.488C222.231 190.676 210.748 175.757 207.155 163.024C203.484 150.058 197.625 115.22 196.766 110.22L174.426 115.298L174.27 114.751C173.879 113.345 173.567 112.33 173.411 111.705L151.774 120.141C151.695 137.95 142.634 203.408 141.697 210.282Z" fill="black"/>
<path d="M191.221 115.53C190.987 115.53 190.753 115.373 190.674 115.139C190.362 114.436 190.05 113.733 189.737 113.03C189.581 112.717 189.737 112.405 190.05 112.249C190.362 112.093 190.674 112.249 190.831 112.561C191.143 113.264 191.456 113.967 191.768 114.748C191.924 115.061 191.768 115.373 191.456 115.53C191.377 115.451 191.299 115.53 191.221 115.53Z" fill="black"/>
<path d="M213.483 191.221C213.249 191.221 213.093 191.143 212.936 190.909C212.155 189.581 211.374 188.096 210.593 186.534C210.437 186.222 210.593 185.909 210.827 185.753C211.14 185.597 211.452 185.753 211.609 185.987C212.39 187.55 213.171 188.956 213.952 190.284C214.108 190.596 214.03 190.908 213.718 191.065C213.639 191.143 213.561 191.221 213.483 191.221ZM208.953 182.394C208.718 182.394 208.484 182.238 208.406 182.082C207.703 180.598 207.078 179.114 206.375 177.551C206.219 177.239 206.375 176.926 206.687 176.77C207 176.614 207.312 176.77 207.469 177.083C208.093 178.645 208.797 180.129 209.421 181.613C209.578 181.926 209.421 182.238 209.109 182.394C209.109 182.316 209.031 182.394 208.953 182.394ZM205.125 173.255C204.891 173.255 204.657 173.099 204.578 172.865C204.032 171.38 203.563 169.818 203.016 168.1C202.938 167.787 203.094 167.475 203.407 167.397C203.719 167.319 204.032 167.475 204.11 167.787C204.578 169.428 205.125 171.068 205.594 172.474C205.672 172.786 205.516 173.099 205.281 173.255C205.281 173.177 205.203 173.255 205.125 173.255ZM202.391 163.725C202.157 163.725 201.923 163.569 201.845 163.257C201.454 161.773 201.142 160.132 200.751 158.414C200.673 158.101 200.907 157.789 201.22 157.711C201.532 157.633 201.845 157.867 201.923 158.179C202.313 159.898 202.626 161.538 203.016 163.022C203.094 163.335 202.86 163.647 202.548 163.725C202.469 163.725 202.391 163.725 202.391 163.725ZM200.36 153.961C200.048 153.961 199.814 153.727 199.814 153.493C199.501 151.852 199.189 150.29 198.954 148.65C198.876 148.337 199.111 148.025 199.423 147.947C199.735 147.869 200.048 148.103 200.126 148.415C200.439 150.056 200.673 151.696 200.985 153.258C201.063 153.571 200.829 153.883 200.517 153.961C200.439 153.961 200.439 153.961 200.36 153.961ZM198.642 144.276C198.329 144.276 198.095 144.041 198.095 143.807C197.783 142.166 197.47 140.526 197.236 138.964C197.158 138.651 197.392 138.339 197.705 138.261C198.017 138.183 198.329 138.417 198.408 138.73C198.72 140.37 199.032 142.01 199.267 143.651C199.345 143.963 199.111 144.276 198.798 144.354C198.72 144.276 198.642 144.276 198.642 144.276ZM196.767 134.512C196.533 134.512 196.22 134.355 196.22 134.043C195.83 132.324 195.517 130.762 195.127 129.2C195.049 128.887 195.283 128.575 195.596 128.497C195.908 128.419 196.22 128.653 196.299 128.966C196.689 130.528 197.002 132.09 197.392 133.808C197.47 134.121 197.236 134.433 196.923 134.512C196.845 134.512 196.845 134.512 196.767 134.512ZM194.424 124.904C194.19 124.904 193.955 124.747 193.877 124.513C193.408 122.873 192.94 121.311 192.393 119.826C192.315 119.514 192.471 119.202 192.784 119.045C193.096 118.967 193.408 119.123 193.565 119.436C194.033 120.92 194.58 122.56 195.049 124.201C195.127 124.513 194.971 124.826 194.658 124.904C194.58 124.826 194.502 124.904 194.424 124.904Z" fill="black"/>
<path d="M217.545 197.237C217.388 197.237 217.232 197.159 217.076 197.081C217.076 197.081 216.529 196.456 215.592 195.128C215.436 194.894 215.436 194.503 215.748 194.347C215.982 194.191 216.373 194.191 216.529 194.503C217.388 195.753 217.857 196.3 217.935 196.3C218.17 196.534 218.17 196.924 217.857 197.159C217.779 197.159 217.623 197.237 217.545 197.237Z" fill="black"/>
<path d="M146.931 220.202C144.9 218.796 142.869 217.39 140.838 215.984C140.994 215.75 141.15 215.594 141.307 215.359C143.337 216.765 145.368 218.171 147.321 219.499C147.712 219.812 147.321 220.437 146.931 220.202Z" fill="#E7EBF3"/>
<path d="M143.415 222.859C141.775 221.374 140.056 219.968 138.338 218.484C138.494 218.328 138.728 218.172 138.885 217.938C140.525 219.422 142.244 220.828 143.962 222.234C144.353 222.702 143.806 223.249 143.415 222.859Z" fill="#E7EBF3"/>
<path d="M175.441 153.571C175.207 153.571 174.972 153.415 174.894 153.181C173.254 149.197 171.379 132.325 170.989 129.278C170.208 129.2 168.255 128.888 164.74 128.185C164.427 128.107 164.193 127.794 164.271 127.482C164.349 127.169 164.662 126.935 164.974 127.013C169.739 127.951 171.535 128.185 171.535 128.185L172.004 128.263L172.082 128.732C172.082 128.966 174.269 148.65 175.91 152.79C176.066 153.103 175.91 153.415 175.597 153.571C175.597 153.571 175.519 153.571 175.441 153.571Z" fill="black"/>
<path d="M158.57 62.5735C150.68 65.2293 144.119 70.619 145.837 93.2716C147.556 115.924 148.024 121.783 148.024 121.783L198.797 114.596C198.797 114.518 183.956 53.9811 158.57 62.5735Z" fill="#A6469D"/>
<path d="M147.478 122.407L147.399 121.782C147.399 121.704 146.853 115.69 145.212 93.2715C143.572 71.5563 149.274 65.073 158.335 62.0266C162.709 60.5425 167.084 61.0111 171.302 63.2764C189.033 73.0404 198.954 112.643 199.344 114.362L199.5 114.987L147.478 122.407ZM158.726 63.1202C151.852 65.4635 144.666 69.8378 146.384 93.1933C147.79 111.706 148.337 119.048 148.493 121.079L198.016 114.049C196.688 108.894 186.846 73.1967 170.755 64.37C166.849 62.1828 162.788 61.7922 158.726 63.1202Z" fill="#A6469D"/>
<path d="M179.737 93.2718C186.611 93.2718 193.407 93.1937 200.28 93.1156C198.328 78.1961 185.752 61.1677 165.442 59.3711V73.7438C172.316 73.9781 178.8 84.8357 179.737 93.2718Z" fill="#A6469D"/>
<path d="M179.19 93.8185L179.112 93.2717C178.175 84.8356 171.769 74.4467 165.364 74.2123H164.817V58.668L165.442 58.7461C185.83 60.5427 198.874 77.7273 200.827 93.0373L200.905 93.6623H200.28C193.563 93.7404 186.611 93.8185 179.737 93.8185H179.19ZM165.989 73.1187C172.707 73.8998 179.034 83.9763 180.205 92.6468C186.689 92.6468 193.172 92.5687 199.577 92.4906C197.39 78.0398 185.048 62.0268 165.989 59.9959V73.1187Z" fill="#A6469D"/>
<path d="M185.518 42.965L190.83 28.7486C193.017 22.8902 185.362 20 183.175 25.8585L177.941 39.8406C180.519 40.856 183.019 41.8715 185.518 42.965Z" fill="black"/>
<path d="M109.827 230.826C108.812 230.435 108.343 229.264 108.734 228.326L113.499 216.219C113.889 215.203 115.061 214.735 115.998 215.125C117.014 215.516 117.482 216.688 117.092 217.625L112.327 229.732C112.014 230.748 110.843 231.216 109.827 230.826Z" fill="black"/>
<path d="M132.168 205.204L191.221 46.9487C196.533 32.9666 174.739 24.6086 169.428 38.6688L110.375 196.924C107.719 203.954 107.329 221.451 112.718 223.56C118.264 225.669 129.513 212.234 132.168 205.204Z" fill="#E7EBF3"/>
<path d="M114.046 224.342C113.577 224.342 113.03 224.264 112.64 224.108C106.703 221.842 107.172 203.955 109.906 196.768L168.959 38.513C171.849 30.9361 179.113 29.6863 184.581 31.7953C190.127 33.9044 194.736 39.6066 191.846 47.1835L132.793 205.439C131.387 209.11 127.872 214.187 123.966 218.249C121.623 220.671 117.405 224.342 114.046 224.342ZM179.738 32.0297C175.833 32.0297 171.927 33.9825 170.052 38.9035L111 197.159C108.187 204.58 108.266 221.217 113.03 223.014C115.14 223.795 118.967 221.764 123.185 217.39C126.934 213.562 130.449 208.485 131.699 205.048L190.752 46.7929C193.33 39.919 189.19 34.7636 184.191 32.8889C182.785 32.3421 181.222 32.0297 179.738 32.0297Z" fill="black"/>
<path d="M168.177 42.1836L165.521 49.3699C172.708 52.3382 179.894 55.3065 187.002 58.3528L189.736 50.9322C182.628 47.9639 175.442 44.9956 168.177 42.1836Z" fill="black"/>
<path d="M128.887 211.219C130.372 209.032 131.543 206.923 132.168 205.205L151.93 152.323C144.744 149.355 137.558 146.464 130.215 143.809L110.375 197.003C109.906 198.331 109.437 200.049 109.125 201.924C115.686 205.127 122.248 208.251 128.887 211.219Z" fill="black"/>
<path d="M195.751 79.834C189.971 82.8804 184.268 86.0048 179.035 89.9104C180.363 94.9096 180.207 99.6745 177.629 101.862C174.192 104.83 169.271 104.596 164.428 102.955C163.022 94.9096 158.882 92.8006 154.508 91.1603C151.071 89.9105 150.836 93.2693 156.148 97.253L156.226 99.0496C154.976 98.3466 153.883 97.5654 152.867 96.8624C146.306 92.1757 145.681 97.6436 145.681 97.6436C141.385 98.0341 142.713 102.565 142.713 102.565C139.901 105.767 140.448 107.564 153.18 117.015C167.865 127.873 195.595 127.014 200.125 101.783C201.375 95.144 199.813 87.0984 195.751 79.834Z" fill="white"/>
<path d="M173.802 124.28C166.381 124.28 158.726 121.936 152.868 117.562C143.885 110.844 140.995 108.11 140.76 105.689C140.604 104.439 141.307 103.424 142.088 102.486C141.932 101.783 141.698 100.065 142.635 98.737C143.182 97.8778 144.041 97.4091 145.291 97.1748C145.447 96.4718 145.916 95.222 147.165 94.6752C148.65 93.9722 150.68 94.5971 153.258 96.3937C154.039 96.9405 154.82 97.4872 155.68 97.9559V97.4872C152.555 95.0657 150.993 92.488 151.774 91.0039C152.008 90.6133 152.789 89.7541 154.82 90.5353C159.351 92.2537 163.569 94.4408 165.053 102.408C170.443 104.049 174.583 103.736 177.395 101.315C179.582 99.44 180.051 95.2219 178.566 89.9103L178.488 89.5198L178.801 89.2854C184.347 85.2236 190.361 81.9429 195.595 79.209L196.142 78.9746L196.454 79.4433C200.516 86.864 202.156 94.9876 200.907 101.862C198.641 114.359 191.064 119.827 185.206 122.171C181.535 123.577 177.707 124.28 173.802 124.28ZM148.415 95.6906C148.103 95.6906 147.79 95.7688 147.556 95.8469C146.462 96.3155 146.306 97.7997 146.306 97.7997L146.228 98.2683L145.759 98.3465C144.744 98.4246 143.963 98.8151 143.572 99.44C142.791 100.612 143.26 102.486 143.26 102.486L143.338 102.799L143.104 103.033C142.088 104.127 141.776 104.83 141.854 105.611C142.088 107.564 145.134 110.454 153.492 116.625C162.163 123.108 174.973 124.983 184.503 121.155C190.127 118.89 197.313 113.735 199.501 101.783C200.672 95.3001 199.188 87.6451 195.439 80.615C190.44 83.1927 184.815 86.3172 179.582 90.1447C181.066 95.7688 180.441 100.221 177.942 102.33C174.739 105.064 169.974 105.455 164.116 103.58L163.803 103.502L163.725 103.189C162.397 95.5344 158.648 93.5035 154.195 91.8631C153.258 91.4726 152.711 91.6288 152.555 91.8631C152.243 92.3318 152.868 94.3627 156.383 97.0186L156.617 97.1748L156.695 100.299L155.758 99.7525C154.586 99.0495 153.414 98.2684 152.399 97.5653C150.837 96.2374 149.431 95.6906 148.415 95.6906Z" fill="black"/>
<path d="M148.416 100.457C147.635 99.8319 147.088 99.0508 146.775 98.0353C146.619 97.5667 145.916 97.7229 145.994 98.2697C146.307 99.3632 146.932 100.301 147.791 101.004C148.26 101.316 148.806 100.769 148.416 100.457Z" fill="black"/>
<path d="M145.525 105.221C144.588 104.986 143.885 104.283 143.65 103.346C143.494 102.877 142.791 103.033 142.869 103.58C143.182 104.752 144.119 105.689 145.291 106.002C145.838 106.08 146.072 105.299 145.525 105.221Z" fill="black"/>
<path d="M139.667 125.843C135.683 116.079 134.589 100.847 148.571 85.4594C149.118 84.9126 149.587 84.3658 150.056 83.819C151.462 77.3357 153.18 71.0086 156.148 64.994C155.68 64.291 155.211 63.9785 155.211 63.9785C141.307 70.3056 123.185 80.1477 118.03 106.159C114.749 122.406 120.607 135.842 128.965 141.31C134.121 144.668 138.261 149.121 141.229 147.949C141.229 147.949 144.822 148.496 147.087 144.825C147.087 144.825 150.837 144.746 150.446 141.075C150.212 139.122 147.946 136.467 145.603 133.733L147.009 132.873C149.431 134.982 154.43 136.701 153.102 132.795C151.774 129.28 147.478 127.015 139.667 125.843Z" fill="white"/>
<path d="M140.135 148.73C137.948 148.73 135.448 146.855 132.636 144.668C131.386 143.731 130.059 142.715 128.574 141.778C120.529 136.467 113.889 123.344 117.404 106.003C122.325 81.3974 138.338 71.0085 154.898 63.4316L155.211 63.2754L155.445 63.4316C155.523 63.4316 155.992 63.8222 156.539 64.6033L156.773 64.9157L156.617 65.2282C153.492 71.5553 151.852 78.1948 150.602 83.897V84.0532L150.524 84.1314C150.055 84.6781 149.587 85.2249 149.04 85.8498C133.652 102.878 137.557 118.891 140.135 125.296C148.024 126.468 152.32 128.89 153.57 132.639C154.117 134.279 153.648 135.061 153.102 135.451C151.696 136.388 148.649 135.06 146.853 133.654L146.306 133.967C148.649 136.623 150.68 139.122 150.836 141.075C150.993 142.325 150.68 143.34 149.977 144.122C149.118 145.137 147.79 145.371 147.243 145.449C145.134 148.73 141.932 148.652 141.15 148.652C140.838 148.652 140.447 148.73 140.135 148.73ZM155.054 64.6814C138.885 72.1021 123.341 82.3348 118.498 106.237C115.139 122.953 121.7 135.92 129.199 140.841C130.683 141.778 132.011 142.794 133.339 143.809C136.464 146.152 139.12 148.183 140.994 147.48L141.15 147.402H141.307C141.463 147.402 144.587 147.793 146.54 144.512L146.696 144.2H147.009C147.009 144.2 148.415 144.122 149.274 143.262C149.743 142.716 149.899 142.012 149.821 141.153C149.665 139.435 147.399 136.779 145.056 134.123L144.587 133.576L147.009 132.17L147.321 132.483C149.118 134.045 151.774 134.982 152.477 134.514C152.867 134.279 152.633 133.42 152.477 133.108C151.383 129.749 147.165 127.562 139.666 126.468L139.354 126.39L139.198 126.078C136.542 119.672 132.168 102.878 148.181 85.0687C148.649 84.5219 149.118 84.0533 149.508 83.5065C150.68 77.8824 152.399 71.3209 155.445 65.072C155.289 64.9157 155.133 64.7595 155.054 64.6814Z" fill="black"/>
<path d="M140.604 97.1762C142.401 93.3487 144.979 90.771 148.572 86.8654C149.118 86.3186 149.821 86.8654 150.29 86.2405C151.696 79.7572 153.102 70.9305 156.07 64.994C155.602 64.291 155.133 63.9785 155.133 63.9785C145.994 68.1185 134.98 73.8987 127.091 84.7563C131.465 88.9744 136.074 93.0363 140.604 97.1762Z" fill="#A6469D"/>
<path d="M140.838 98.1134L140.292 97.5667C139.354 96.7074 138.417 95.9263 137.558 95.0671C133.965 91.8645 130.293 88.5056 126.778 85.1468L126.388 84.7562L126.7 84.3657C134.433 73.8205 144.822 68.0402 154.977 63.4316L155.289 63.2754L155.524 63.4316C155.602 63.4316 156.07 63.8222 156.617 64.6033L156.851 64.9157L156.695 65.2282C154.274 70.1493 152.868 76.945 151.618 82.9597C151.384 84.1314 151.149 85.2249 150.915 86.3185V86.4747L150.837 86.5528C150.446 87.0215 149.899 87.0215 149.587 87.0215C149.275 87.0215 149.196 87.0215 149.118 87.0996C148.65 87.5683 148.259 88.0369 147.79 88.5056C144.9 91.7082 142.791 93.9735 141.229 97.2542L140.838 98.1134ZM127.872 84.6781C131.231 87.9589 134.824 91.1614 138.261 94.2078C138.964 94.8327 139.745 95.5357 140.448 96.1606C142.01 93.1142 144.197 90.7709 146.853 87.8026C147.244 87.334 147.712 86.8653 148.181 86.3966C148.65 85.9279 149.118 85.9279 149.509 85.9279C149.665 85.9279 149.743 85.9279 149.821 85.9279C150.056 84.9125 150.212 83.897 150.446 82.8034C151.618 76.8669 153.024 70.0711 155.445 65.072C155.289 64.9157 155.211 64.7595 155.055 64.6814C145.291 69.1338 135.293 74.6798 127.872 84.6781Z" fill="#A6469D"/>
<path d="M146.617 144.356C145.055 141.466 143.259 138.654 141.228 135.998C140.915 135.607 140.212 135.998 140.525 136.388C142.555 139.044 144.274 141.778 145.914 144.746C146.227 145.215 146.852 144.824 146.617 144.356Z" fill="black"/>
<path d="M142.088 147.089C140.682 143.808 138.573 140.996 135.683 138.887C135.293 138.574 134.902 139.277 135.293 139.59C138.027 141.543 140.057 144.198 141.385 147.323C141.542 147.714 142.245 147.557 142.088 147.089Z" fill="black"/>
<path d="M145.448 87.8014C145.135 87.8014 144.901 87.567 144.901 87.3326L144.12 82.8022C144.042 82.4897 144.276 82.1772 144.588 82.0991C144.901 82.021 145.213 82.2554 145.291 82.5678L146.072 87.0983C146.151 87.4108 145.916 87.7232 145.604 87.8014C145.448 87.8014 145.448 87.8014 145.448 87.8014Z" fill="black"/>
<path d="M103.501 231.216C103.344 231.216 103.11 231.138 103.032 230.982L89.0499 211.063C88.8937 210.829 88.8937 210.439 89.2061 210.282C89.4404 210.126 89.831 210.126 89.9872 210.439L103.969 230.357C104.126 230.591 104.126 230.982 103.813 231.138C103.735 231.216 103.579 231.216 103.501 231.216Z" fill="#A6469D"/>
<path d="M97.643 231.215C97.5649 231.215 97.4087 231.215 97.3306 231.137L87.176 224.263C86.9416 224.107 86.8635 223.716 87.0198 223.482C87.176 223.247 87.5665 223.169 87.8009 223.325L97.9555 230.199C98.1898 230.356 98.2679 230.746 98.1117 230.98C98.0336 231.137 97.8774 231.215 97.643 231.215Z" fill="#A6469D"/>
<path d="M161.695 49.4499C161.617 46.716 158.883 45.0756 155.837 46.5597C155.368 46.7941 154.977 47.1065 154.509 47.4971C154.509 47.4971 154.509 47.4971 154.431 47.419C150.134 42.8885 143.339 42.2636 139.277 46.0911C135.215 49.9186 136.152 56.0894 139.589 61.323C142.792 66.0097 149.431 68.5093 154.743 62.6509C156.461 60.6981 157.477 58.1204 157.555 55.4645C160.367 54.6053 161.695 51.8714 161.695 49.4499Z" fill="white"/>
<path d="M147.869 66.7111C147.635 66.7111 147.479 66.7111 147.244 66.7111C144.12 66.4768 141.152 64.6021 139.199 61.7119C135.137 55.6973 135.059 49.4483 138.965 45.777C141.074 43.8242 143.886 42.8869 146.932 43.1212C149.822 43.3556 152.478 44.6835 154.587 46.7925C154.899 46.5582 155.29 46.3238 155.602 46.1676C157.243 45.3084 158.961 45.3084 160.289 46.0895C161.461 46.7925 162.242 48.0423 162.242 49.5265C162.32 51.8698 161.07 54.8381 158.102 56.0098C157.946 58.6656 156.93 61.1651 155.212 63.1179C152.556 66.0081 149.822 66.7111 147.869 66.7111ZM145.838 44.2148C143.495 44.2148 141.308 45.074 139.668 46.5582C135.449 50.5419 137.246 56.7909 140.058 61.0089C141.855 63.6647 144.511 65.3051 147.244 65.4613C149.822 65.6175 152.244 64.524 154.275 62.2587C155.915 60.4622 156.852 58.0407 156.93 55.463V55.0724L157.321 54.9162C159.899 54.0569 161.07 51.4792 160.992 49.4483C160.992 48.4329 160.445 47.4955 159.586 47.0269C158.571 46.402 157.243 46.4801 155.993 47.1049C155.602 47.3393 155.212 47.5737 154.743 47.9642L154.353 48.3548L153.962 47.9642C151.931 45.8552 149.353 44.5273 146.62 44.2929C146.463 44.2148 146.151 44.2148 145.838 44.2148Z" fill="black"/>
<path d="M146.245 56.1658C146.421 55.7721 146.245 55.3099 145.851 55.1336C145.458 54.9573 144.996 55.1336 144.819 55.5273C144.643 55.921 144.819 56.3832 145.213 56.5595C145.607 56.7358 146.069 56.5595 146.245 56.1658Z" fill="black"/>
<path d="M143.651 62.1802C142.636 60.7742 141.854 59.212 141.23 57.5716C141.073 57.103 141.776 56.7905 141.933 57.2592C142.479 58.8214 143.26 60.3056 144.198 61.7116C144.588 62.1021 143.963 62.5708 143.651 62.1802Z" fill="black"/>
<path d="M138.261 52.6498C140.604 51.7906 147.791 45.5415 150.525 50.0721C151.228 51.2437 151.228 52.1811 152.555 51.8687C153.805 51.3219 153.571 49.7596 153.571 49.7596C154.508 48.4317 154.821 47.1038 155.836 46.557C158.648 42.0265 151.696 36.4025 147.791 39.7613C147.791 39.7613 139.12 37.6522 136.621 43.042C132.168 44.8385 130.528 48.2755 131.465 51.4781C133.106 56.946 138.261 52.6498 138.261 52.6498Z" fill="black"/>
<path d="M155.29 52.1821C155.212 50.3074 156.383 48.667 158.18 48.1202C158.649 47.964 158.961 48.7451 158.492 48.8232C157.086 49.2138 156.071 50.5417 156.149 52.0258C156.071 52.6507 155.29 52.7288 155.29 52.1821Z" fill="black"/>
<rect x="79.6992" y="91.3125" width="12.8808" height="9.66063" rx="1.61011" fill="#E7EBF3"/>
<rect x="29.7861" y="59.0566" width="75.6749" height="51.5234" rx="6.44042" fill="#5EEDC7"/>
<path d="M29.7861 65.4971C29.7861 61.9401 32.6696 59.0566 36.2266 59.0566H95.8005V94.479C95.8005 98.0359 92.917 100.919 89.36 100.919H29.7861V65.4971Z" fill="#00C4B4"/>
<rect x="29.7861" y="67.1074" width="75.6749" height="12.8808" fill="#00C4B4"/>
<rect x="29.7861" y="67.1074" width="66.0143" height="12.8808" fill="#007F8D"/>
<rect x="13.6865" y="42.9551" width="75.6749" height="51.5234" rx="6.44042" fill="#E7EBF3"/>
<rect x="21.7363" y="50.9512" width="12.8808" height="9.66063" rx="1.61011" fill="white"/>
<rect x="68.4297" y="76.7676" width="12.8808" height="9.66063" rx="4.83032" fill="#C9D0E4"/>
<rect x="21.7363" y="71.9355" width="38.6425" height="4.83032" rx="1.61011" fill="#A0AFCA"/>
<rect x="21.7363" y="81.5977" width="16.1011" height="4.83032" rx="1.61011" fill="#A0AFCA"/>
<path d="M89.3605 55.4353V49.3975C89.3605 45.8405 86.477 42.957 82.9201 42.957H20.126C16.569 42.957 13.6855 45.8405 13.6855 49.3975V88.04C13.6855 91.5969 16.569 94.4804 20.126 94.4804H82.9201C86.477 94.4804 89.3605 91.5969 89.3605 88.04V68.1149" stroke="#2D3338" stroke-width="1.20758" stroke-linecap="round"/>
<circle cx="8.61591" cy="105.486" r="5.03095" fill="#A6469D"/>
<circle cx="105.286" cy="40.8299" r="2.51548" fill="#D271C1"/>
</svg>
