<svg width="141" height="140" viewBox="0 0 141 140" fill="none" xmlns="http://www.w3.org/2000/svg">
<path fill-rule="evenodd" clip-rule="evenodd" d="M140.944 130C140.944 91.3401 109.604 60 70.9443 60C32.2844 60 0.944336 91.3401 0.944336 130H140.944Z" fill="#F9FBFE"/>
<path d="M39.5966 87.4273H120.581C124.647 87.4273 127.944 84.1311 127.944 80.0651V35.8916C127.944 31.8255 124.647 28.5293 120.581 28.5293H39.5966C35.5306 28.5293 32.2344 31.8255 32.2344 35.8915V80.0651C32.2344 84.1311 35.5306 87.4273 39.5966 87.4273Z" fill="#00C4B4"/>
<path d="M45.1164 80.0661H115.058C118.107 80.0661 120.58 77.5939 120.58 74.5444V41.4143C120.58 38.3647 118.107 35.8926 115.058 35.8926H45.1164C42.0669 35.8926 39.5947 38.3647 39.5947 41.4143V74.5444C39.5947 77.594 42.0669 80.0661 45.1164 80.0661Z" fill="#5EEDC7"/>
<path d="M39.5947 46.936C45.6938 46.936 50.6381 41.9917 50.6381 35.8926H39.5947V46.936Z" fill="#00C4B4"/>
<path d="M39.5947 69.023C45.6938 69.023 50.6381 73.9673 50.6381 80.0664H39.5947V69.023Z" fill="#00C4B4"/>
<path d="M120.579 69.023C114.48 69.023 109.536 73.9673 109.536 80.0664H120.579V69.023Z" fill="#00C4B4"/>
<path d="M120.579 46.936C114.48 46.936 109.536 41.9917 109.536 35.8926H120.579V46.936Z" fill="#00C4B4"/>
<path d="M32.2344 52.4579C32.2344 48.3919 35.5306 45.0957 39.5966 45.0957H91.1324C95.1985 45.0957 98.4947 48.3919 98.4947 52.458V87.4287H39.5966C35.5306 87.4287 32.2344 84.1325 32.2344 80.0664V52.4579Z" fill="#36DBBE"/>
<path d="M32.2344 45.0957H39.5966V87.4287V87.4287C35.5306 87.4287 32.2344 84.1325 32.2344 80.0664V45.0957Z" fill="#007F8D"/>
<path d="M32.2344 80.0664H98.4947V87.4287H39.5966C35.5306 87.4287 32.2344 84.1325 32.2344 80.0664V80.0664Z" fill="#007F8D"/>
<circle cx="80.089" cy="57.9796" r="12.8839" fill="#007F8D"/>
<path d="M39.5967 46.9363V45.0957H45.7033C43.9542 46.2587 41.8546 46.9363 39.5967 46.9363Z" fill="#007F8D"/>
<circle cx="118.74" cy="83.7455" r="18.4056" fill="#6B196B"/>
<path fill-rule="evenodd" clip-rule="evenodd" d="M129.265 78.583L116.357 91.9051L110.062 85.4628L112.694 82.89L116.346 86.6266L126.621 76.0215L129.265 78.583Z" fill="white"/>
<rect x="4.62598" y="52.457" width="86.5065" height="58.898" rx="7.36225" fill="#E7EBF3"/>
<rect x="13.8281" y="61.5957" width="14.7245" height="11.0434" rx="1.84056" fill="white"/>
<rect x="67.2051" y="91.1074" width="14.7245" height="11.0434" rx="5.52169" fill="#C9D0E4"/>
<rect x="13.8281" y="85.5859" width="44.1735" height="5.52169" rx="1.84056" fill="#A0AFCA"/>
<rect x="13.8281" y="96.6309" width="18.4056" height="5.52169" rx="1.84056" fill="#A0AFCA"/>
<path d="M65.3646 52.4551H11.9882C7.92217 52.4551 4.62598 55.7513 4.62598 59.8173V103.991C4.62598 108.057 7.92216 111.353 11.9882 111.353H83.7702C87.8363 111.353 91.1325 108.057 91.1325 103.991V59.8173C91.1325 55.7513 87.8363 52.4551 83.7702 52.4551H80.3192" stroke="#2D3338" stroke-width="1.38042" stroke-linecap="round" stroke-linejoin="round"/>
<circle cx="21.1899" cy="41.4135" r="3.68113" fill="#A6469D"/>
<circle cx="129.785" cy="111.354" r="1.84056" fill="#D271C1"/>
</svg>
