<svg width="13" height="13" viewBox="0 0 13 13" fill="none" xmlns="http://www.w3.org/2000/svg">
<circle cx="6.33346" cy="6.33346" r="6.33346" fill="#A9B1BF"/>
<path d="M8.23416 4.90785C8.23416 4.53206 8.12272 4.16471 7.91394 3.85225C7.70517 3.53979 7.40842 3.29625 7.06123 3.15244C6.71405 3.00863 6.33201 2.97101 5.96344 3.04432C5.59487 3.11763 5.25632 3.2986 4.99059 3.56432C4.72487 3.83005 4.5439 4.1686 4.47059 4.53717C4.39728 4.90574 4.4349 5.28778 4.57871 5.63496C4.72252 5.98215 4.96606 6.2789 5.27852 6.48767C5.59098 6.69645 5.95833 6.80789 6.33412 6.80789V5.85787C6.14622 5.85787 5.96255 5.80215 5.80632 5.69776C5.65009 5.59337 5.52832 5.445 5.45642 5.27141C5.38451 5.09781 5.3657 4.9068 5.40236 4.72251C5.43901 4.53823 5.52949 4.36895 5.66236 4.23609C5.79522 4.10322 5.96449 4.01274 6.14878 3.97609C6.33307 3.93943 6.52408 3.95824 6.69768 4.03015C6.87127 4.10205 7.01964 4.22382 7.12403 4.38005C7.22842 4.53628 7.28414 4.71995 7.28414 4.90785H8.23416Z" fill="white"/>
<path d="M4.4343 7.75817C4.4343 8.13396 4.54573 8.50131 4.75451 8.81377C4.96329 9.12623 5.26004 9.36976 5.60722 9.51357C5.95441 9.65738 6.33644 9.69501 6.70502 9.62169C7.07359 9.54838 7.41214 9.36742 7.67787 9.10169C7.94359 8.83597 8.12455 8.49742 8.19787 8.12884C8.27118 7.76027 8.23355 7.37824 8.08974 7.03105C7.94593 6.68387 7.7024 6.38712 7.38994 6.17834C7.07748 5.96956 6.71013 5.85813 6.33434 5.85813V6.80815C6.52223 6.80815 6.70591 6.86386 6.86214 6.96825C7.01837 7.07264 7.14014 7.22102 7.21204 7.39461C7.28394 7.5682 7.30276 7.75922 7.2661 7.9435C7.22944 8.12779 7.13896 8.29707 7.0061 8.42993C6.87324 8.56279 6.70396 8.65327 6.51968 8.68993C6.33539 8.72659 6.14437 8.70777 5.97078 8.63587C5.79719 8.56396 5.64881 8.4422 5.54443 8.28597C5.44004 8.12974 5.38432 7.94606 5.38432 7.75817H4.4343Z" fill="white"/>
<rect x="5.85889" y="2.5332" width="0.950019" height="0.633346" fill="white"/>
<rect x="5.85889" y="9.5" width="0.950019" height="0.633346" fill="white"/>
</svg>
