<svg width="13" height="13" viewBox="0 0 13 13" fill="none" xmlns="http://www.w3.org/2000/svg">
<circle cx="6.33346" cy="6.33346" r="6.33346" fill="#00C4B4"/>
<path fill-rule="evenodd" clip-rule="evenodd" d="M6.3335 3.64143C5.89626 3.64143 5.54182 3.99587 5.54182 4.43311C5.54182 4.87034 5.89626 5.22479 6.3335 5.22479C6.77073 5.22479 7.12518 4.87034 7.12518 4.43311C7.12518 3.99587 6.77073 3.64143 6.3335 3.64143ZM4.5918 4.43311C4.5918 3.47119 5.37158 2.69141 6.3335 2.69141C7.29541 2.69141 8.0752 3.47119 8.0752 4.43311C8.0752 5.39502 7.29541 6.17481 6.3335 6.17481C5.37158 6.17481 4.5918 5.39502 4.5918 4.43311Z" fill="white"/>
<path fill-rule="evenodd" clip-rule="evenodd" d="M6.33359 7.75861C5.19678 7.75861 4.27521 8.68018 4.27521 9.81699H3.3252C3.3252 8.1555 4.6721 6.80859 6.33359 6.80859C7.99508 6.80859 9.34198 8.1555 9.34198 9.81699H8.39196C8.39196 8.68018 7.4704 7.75861 6.33359 7.75861Z" fill="white"/>
</svg>
