<svg width="43" height="42" viewBox="0 0 43 42" fill="none" xmlns="http://www.w3.org/2000/svg">
<circle cx="21.5" cy="21" r="20" fill="#F0C0E8"/>
<ellipse cx="9.5" cy="22" rx="4" ry="2" fill="#FFD8F8"/>
<ellipse cx="33.5" cy="22" rx="4" ry="2" fill="#FFD8F8"/>
<path d="M4.17564 31C2.47394 28.0583 1.5 24.6429 1.5 21C1.5 9.9543 10.4543 1 21.5 1C32.5457 1 41.5 9.9543 41.5 21C41.5 32.0457 32.5457 41 21.5 41C17.4364 41 13.6558 39.7881 10.5 37.706" stroke="#A6469D" stroke-width="2" stroke-linecap="round"/>
<circle cx="14.5" cy="17" r="2" fill="#410C4D"/>
<circle cx="28.5" cy="17" r="2" fill="#410C4D"/>
<path d="M12.5 28C14.4446 29.7393 17.7498 30.884 21.5 30.884C25.2502 30.884 28.5554 29.7393 30.5 28" stroke="#410C4D" stroke-width="3" stroke-linecap="round"/>
</svg>
