<svg width="43" height="42" viewBox="0 0 43 42" fill="none" xmlns="http://www.w3.org/2000/svg">
<circle cx="21.5" cy="21" r="20" fill="#E7EBF3"/>
<path d="M4.17564 31C2.47394 28.0583 1.5 24.6429 1.5 21C1.5 9.9543 10.4543 1 21.5 1C32.5457 1 41.5 9.9543 41.5 21C41.5 32.0457 32.5457 41 21.5 41C17.4364 41 13.6558 39.7881 10.5 37.706" stroke="#A0AFCA" stroke-width="2" stroke-linecap="round"/>
<path d="M12.5 29.8828C14.4446 28.1435 17.7498 26.9989 21.5 26.9989C25.2502 26.9989 28.5554 28.1435 30.5 29.8828" stroke="#2D3338" stroke-width="3" stroke-linecap="round"/>
<circle cx="14.5" cy="17" r="2" fill="#2D3338"/>
<circle cx="28.5" cy="17" r="2" fill="#2D3338"/>
<ellipse cx="21.5" cy="33" rx="4" ry="2" fill="#FCFDFE"/>
</svg>
