<svg width="43" height="42" viewBox="0 0 43 42" fill="none" xmlns="http://www.w3.org/2000/svg">
<circle cx="21.5" cy="21" r="20" fill="#E7EBF3"/>
<ellipse cx="9.5" cy="22" rx="4" ry="2" fill="#FCFDFE"/>
<ellipse cx="33.5" cy="22" rx="4" ry="2" fill="#FCFDFE"/>
<path d="M4.17564 31C2.47394 28.0583 1.5 24.6429 1.5 21C1.5 9.9543 10.4543 1 21.5 1C32.5457 1 41.5 9.9543 41.5 21C41.5 32.0457 32.5457 41 21.5 41C17.4364 41 13.6558 39.7881 10.5 37.706" stroke="#A0AFCA" stroke-width="2" stroke-linecap="round"/>
<path d="M10.9653 27.6128C13.3274 30.8768 17.166 33 21.5 33C25.834 33 29.6726 30.8768 32.0347 27.6128C32.8717 26.4562 31.9256 25 30.4979 25H12.5021C11.0744 25 10.1283 26.4562 10.9653 27.6128Z" fill="#2D3338"/>
<path d="M16.5 18C16.5 16.8954 15.6046 16 14.5 16C13.3954 16 12.5 16.8954 12.5 18" stroke="#2D3338" stroke-width="2" stroke-linecap="round"/>
<path d="M30.5 18C30.5 16.8954 29.6046 16 28.5 16C27.3954 16 26.5 16.8954 26.5 18" stroke="#2D3338" stroke-width="2" stroke-linecap="round"/>
</svg>
