<svg width="174" height="137" viewBox="0 0 174 137" fill="none" xmlns="http://www.w3.org/2000/svg">
<path d="M157.211 46.7229C157.211 40.735 152.357 35.8809 146.369 35.8809H70.4741C64.4862 35.8809 59.632 40.735 59.632 46.723V98.223C59.632 104.211 64.4862 109.065 70.4741 109.065H114.773C117.648 109.065 120.406 110.207 122.439 112.241L136.321 126.122C138.028 127.83 140.948 126.62 140.948 124.205V109.065H146.369C152.357 109.065 157.211 104.211 157.211 98.223V46.7229Z" fill="#5EEDC7"/>
<path d="M59.6328 46.723C59.6328 40.735 64.487 35.8809 70.4749 35.8809H113.843V75.1835C113.843 81.1714 108.989 86.0256 103.001 86.0256H59.6328V46.723Z" fill="#00C4B4"/>
<rect width="43.3684" height="8.13158" rx="2.71053" transform="matrix(-1 0 0 1 140.949 77.8965)" fill="#00C4B4"/>
<path d="M113.5 77.8965H100.291C98.7945 77.8965 97.581 79.11 97.581 80.607V83.3175C97.581 84.8145 98.7945 86.0281 100.291 86.0281H103.002C108.18 85.7921 111.919 82.9902 113.5 77.8965Z" fill="#007F8D"/>
<rect width="65.0526" height="8.13158" rx="2.71053" transform="matrix(-1 0 0 1 140.949 58.9219)" fill="#00C4B4"/>
<path d="M113.844 58.9219H79.9622C78.4652 58.9219 77.2516 60.1354 77.2516 61.6324V64.3429C77.2516 65.8399 78.4652 67.0535 79.9622 67.0535H113.844V58.9219Z" fill="#007F8D"/>
<path d="M5.42188 12.8421C5.42188 6.85416 10.2761 2 16.264 2H92.1587C98.1466 2 103.001 6.85418 103.001 12.8421V64.3421C103.001 70.3301 98.1467 75.1842 92.1587 75.1842H47.8602C44.9847 75.1842 42.227 76.3265 40.1937 78.3598L26.3122 92.2413C24.6047 93.9488 21.685 92.7395 21.685 90.3246V75.1842H16.264C10.2761 75.1842 5.42188 70.33 5.42188 64.3421V12.8421Z" fill="#E7EBF3"/>
<path d="M5.42188 38.5921V12.8421C5.42188 6.85417 10.2761 2 16.264 2H92.1587C98.1466 2 103.001 6.85418 103.001 12.8421V64.3421C103.001 70.3301 98.1467 75.1842 92.1587 75.1842H47.8602C44.9847 75.1842 42.227 76.3265 40.1937 78.3598L26.3122 92.2413C24.6047 93.9488 21.685 92.7395 21.685 90.3246V75.1842H16.264C10.2761 75.1842 5.42188 70.33 5.42188 64.3421V56.8882" stroke="#2D3338" stroke-width="2.03289" stroke-linecap="round" stroke-linejoin="round"/>
<rect x="21.6836" y="44.0137" width="43.3684" height="8.13158" rx="2.71053" fill="#A0AFCA"/>
<rect x="21.6836" y="25.041" width="65.0526" height="8.13158" rx="2.71053" fill="#A0AFCA"/>
<circle cx="135.527" cy="109.066" r="27.1053" fill="#6B196B"/>
<path fill-rule="evenodd" clip-rule="evenodd" d="M151.026 101.466L132.017 121.085L122.746 111.597L126.623 107.808L132.001 113.311L147.133 97.6934L151.026 101.466Z" fill="white"/>
<circle cx="5.42105" cy="92.8019" r="5.42105" fill="#A6469D"/>
<circle cx="170.765" cy="38.5914" r="2.71053" fill="#D271C1"/>
</svg>
