<svg width="24" height="24" viewBox="0 0 24 24" fill="none" xmlns="http://www.w3.org/2000/svg">
<rect x="1" y="5" width="22" height="14" rx="1" fill="#15195A"/>
<path d="M10.0777 9.50551L7.98058 14.5148H6.61165L5.58252 10.5171C5.52427 10.2739 5.46602 10.1767 5.27184 10.0794C4.96117 9.91403 4.4466 9.74868 4 9.65141L4.02913 9.50551H6.23301C6.51456 9.50551 6.76699 9.69032 6.82524 10.0113L7.36893 12.9196L8.70874 9.51524H10.0777V9.50551ZM15.4272 12.8807C15.4369 11.5579 13.6019 11.4898 13.6214 10.8964C13.6214 10.7214 13.7961 10.5268 14.165 10.4782C14.3495 10.4587 14.8641 10.4393 15.4369 10.7019L15.6602 9.64168C15.3495 9.52496 14.9515 9.41797 14.4466 9.41797C13.165 9.41797 12.2718 10.0988 12.2621 11.0715C12.2524 11.7913 12.9029 12.1901 13.3884 12.4333C13.8932 12.6764 14.0583 12.8321 14.0583 13.0558C14.0583 13.3962 13.6602 13.5421 13.2816 13.5421C12.6311 13.5518 12.2524 13.367 11.9515 13.2211L11.7184 14.3203C12.0194 14.4564 12.5825 14.5829 13.1553 14.5829C14.534 14.5926 15.4272 13.9215 15.4272 12.8807ZM18.8058 14.5148H20L18.9515 9.50551H17.8447C17.5922 9.50551 17.3883 9.65141 17.2913 9.87513L15.3495 14.5148H16.7087L16.9806 13.7658H18.6408L18.8058 14.5148ZM17.3592 12.7445L18.0388 10.8673L18.4272 12.7445H17.3592ZM11.9223 9.50551L10.8544 14.5148H9.56311L10.6311 9.50551H11.9223Z" fill="white"/>
</svg>
