<svg width="200" height="128" viewBox="0 0 200 128" fill="none" xmlns="http://www.w3.org/2000/svg">
<path d="M0 8C0 3.58172 3.58172 0 8 0H192C196.418 0 200 3.58172 200 8V120C200 124.418 196.418 128 192 128H8C3.58173 128 0 124.418 0 120V8Z" fill="#E7EBF3"/>
<path d="M23 27H21V34H23V27ZM29 27H27V34H29V27ZM37.5 36H18.5V38H37.5V36ZM35 27H33V34H35V27ZM28 20.26L33.21 23H22.79L28 20.26ZM28 18L18.5 23V25H37.5V23L28 18Z" fill="#828EA5"/>
<path fill-rule="evenodd" clip-rule="evenodd" d="M165.25 94C164.594 94 164 94.5623 164 95.3333V104.667C164 105.438 164.594 106 165.25 106H178.75C179.406 106 180 105.438 180 104.667V95.3333C180 94.5623 179.406 94 178.75 94H165.25ZM162 95.3333C162 93.5269 163.421 92 165.25 92H178.75C180.579 92 182 93.5269 182 95.3333V104.667C182 106.473 180.579 108 178.75 108H165.25C163.421 108 162 106.473 162 104.667V95.3333Z" fill="#828EA5"/>
<path fill-rule="evenodd" clip-rule="evenodd" d="M165 103C165 102.448 165.448 102 166 102H172C172.552 102 173 102.448 173 103C173 103.552 172.552 104 172 104H166C165.448 104 165 103.552 165 103Z" fill="#828EA5"/>
<path fill-rule="evenodd" clip-rule="evenodd" d="M162 97C162 96.4477 162.448 96 163 96L181 96C181.552 96 182 96.4477 182 97C182 97.5523 181.552 98 181 98L163 98C162.448 98 162 97.5523 162 97Z" fill="#828EA5"/>
</svg>
