<svg width="200" height="128" viewBox="0 0 200 128" fill="none" xmlns="http://www.w3.org/2000/svg">
<path d="M0 8C0 3.58172 3.58172 0 8 0H192C196.418 0 200 3.58172 200 8V120C200 124.418 196.418 128 192 128H8C3.58173 128 0 124.418 0 120V8Z" fill="#E7EBF3"/>
<rect y="16" width="200" height="24" fill="#828EA5"/>
<rect x="120" y="56" width="64" height="24" rx="2" fill="white"/>
<path d="M131.406 67.6058C131.059 67.4833 130.877 67.1025 130.999 66.7553C131.122 66.4081 131.502 66.2259 131.85 66.3485L135.332 67.5777V63.3366C135.332 62.9684 135.631 62.6699 135.999 62.6699C136.367 62.6699 136.666 62.9684 136.666 63.3366V67.5777L140.149 66.3485C140.496 66.2259 140.877 66.4081 140.999 66.7553C141.122 67.1025 140.94 67.4833 140.592 67.6058L137.221 68.7957L139.591 72.0058C139.809 72.302 139.746 72.7194 139.45 72.938C139.154 73.1567 138.737 73.0938 138.518 72.7976L135.999 69.3855L133.48 72.7976C133.262 73.0938 132.844 73.1567 132.548 72.938C132.252 72.7194 132.189 72.302 132.408 72.0058L134.777 68.7957L131.406 67.6058Z" fill="#2D3338"/>
<path d="M147.406 67.6058C147.059 67.4833 146.877 67.1025 146.999 66.7553C147.122 66.4081 147.502 66.2259 147.85 66.3485L151.332 67.5777V63.3366C151.332 62.9684 151.631 62.6699 151.999 62.6699C152.367 62.6699 152.666 62.9684 152.666 63.3366V67.5777L156.149 66.3485C156.496 66.2259 156.877 66.4081 156.999 66.7553C157.122 67.1025 156.94 67.4833 156.592 67.6058L153.221 68.7957L155.591 72.0058C155.809 72.302 155.746 72.7194 155.45 72.938C155.154 73.1567 154.737 73.0938 154.518 72.7976L151.999 69.3855L149.48 72.7976C149.262 73.0938 148.844 73.1567 148.548 72.938C148.252 72.7194 148.189 72.302 148.408 72.0058L150.777 68.7957L147.406 67.6058Z" fill="#2D3338"/>
<path d="M163.406 67.6058C163.059 67.4833 162.877 67.1025 162.999 66.7553C163.122 66.4081 163.502 66.2259 163.85 66.3485L167.332 67.5777V63.3366C167.332 62.9684 167.631 62.6699 167.999 62.6699C168.367 62.6699 168.666 62.9684 168.666 63.3366V67.5777L172.149 66.3485C172.496 66.2259 172.877 66.4081 172.999 66.7553C173.122 67.1025 172.94 67.4833 172.592 67.6058L169.221 68.7957L171.591 72.0058C171.809 72.302 171.746 72.7194 171.45 72.938C171.154 73.1567 170.737 73.0938 170.518 72.7976L167.999 69.3855L165.48 72.7976C165.262 73.0938 164.844 73.1567 164.548 72.938C164.252 72.7194 164.189 72.302 164.408 72.0058L166.777 68.7957L163.406 67.6058Z" fill="#2D3338"/>
</svg>
