<svg width="56" height="56" viewBox="0 0 56 56" fill="none" xmlns="http://www.w3.org/2000/svg">
<path fill-rule="evenodd" clip-rule="evenodd" d="M34.316 31.0165C35.2283 31.9289 35.2283 33.4035 34.316 34.3159C33.861 34.7709 33.2637 34.9995 32.6663 34.9995C32.069 34.9995 31.4717 34.7709 31.0167 34.3159L27.9997 31.2989L24.9827 34.3159C24.5277 34.7709 23.9304 34.9995 23.333 34.9995C22.7357 34.9995 22.1384 34.7709 21.6834 34.3159C20.771 33.4035 20.771 31.9289 21.6834 31.0165L24.7003 27.9995L21.6834 24.9825C20.771 24.0702 20.771 22.5955 21.6834 21.6832C22.5957 20.7709 24.0704 20.7709 24.9827 21.6832L27.9997 24.7002L31.0167 21.6832C31.929 20.7709 33.4037 20.7709 34.316 21.6832C35.2283 22.5955 35.2283 24.0702 34.316 24.9825L31.299 27.9995L34.316 31.0165ZM27.9994 4.6665C15.1333 4.6665 4.66602 15.1338 4.66602 27.9998C4.66602 40.8658 15.1333 51.3332 27.9994 51.3332C40.8654 51.3332 51.3327 40.8658 51.3327 27.9998C51.3327 15.1338 40.8654 4.6665 27.9994 4.6665Z" fill="#FF4B4B"/>
</svg>
